<?xml version="1.0" standalone="no"?>
<!DOCTYPE svg PUBLIC "-//W3C//DTD SVG 20010904//EN"
 "http://www.w3.org/TR/2001/REC-SVG-20010904/DTD/svg10.dtd">
<svg version="1.0" xmlns="http://www.w3.org/2000/svg"
 width="1024.000000pt" height="1024.000000pt" viewBox="0 0 1024.000000 1024.000000"
 preserveAspectRatio="xMidYMid meet">

<g transform="translate(0.000000,1024.000000) scale(0.100000,-0.100000)"
fill="#000000" stroke="none">
<path d="M5632 9099 l-2 -1146 -82 -24 -83 -24 -3 -63 c-2 -37 1 -62 7 -62 6
0 126 33 268 74 330 94 708 201 943 266 102 29 318 89 480 135 162 46 457 129
655 185 300 85 529 150 700 201 17 4 233 65 480 135 248 69 467 131 488 137
31 8 44 7 73 -6 62 -30 81 -22 -396 -156 -157 -44 -375 -105 -485 -136 -110
-32 -234 -66 -275 -76 -80 -21 -135 -36 -435 -123 -104 -30 -244 -69 -310 -87
-66 -17 -187 -51 -270 -75 -82 -23 -251 -71 -375 -104 -124 -34 -258 -71 -297
-82 l-73 -20 0 -78 0 -77 -117 -31 c-65 -17 -260 -67 -433 -112 -173 -44 -373
-95 -445 -114 -71 -19 -220 -57 -330 -86 -110 -29 -258 -67 -330 -86 -71 -19
-202 -52 -290 -74 -88 -22 -203 -52 -255 -66 -77 -21 -108 -24 -160 -19 -78 7
-385 54 -635 96 -99 17 -218 37 -265 44 -47 8 -164 28 -260 45 -96 17 -233 40
-305 51 -202 31 -695 115 -900 153 -94 17 -136 24 -190 31 -62 8 -408 64 -525
85 -58 10 -202 35 -320 55 -305 51 -422 71 -525 90 -167 30 -320 55 -337 55
-17 0 -18 -20 -18 -280 0 -154 3 -280 7 -280 8 0 276 -36 593 -80 118 -16 286
-39 374 -50 87 -11 163 -23 169 -27 7 -4 8 -466 3 -1467 -3 -804 -3 -1471 0
-1484 5 -19 12 -23 38 -20 l31 3 -4 1484 -4 1484 34 -6 c55 -10 1069 -146
1092 -147 4 0 7 -144 7 -321 l0 -321 -82 7 c-46 4 -197 18 -336 31 -140 13
-258 21 -263 18 -5 -3 -9 -16 -9 -28 0 -21 6 -24 53 -30 52 -6 431 -38 662
-56 66 -5 262 -23 435 -39 324 -31 594 -53 665 -55 34 -1 40 2 43 21 2 16 -3
23 -25 27 l-28 7 0 292 0 292 25 -2 c23 -2 264 -34 650 -87 l165 -22 -3 -994
c-2 -662 -6 -998 -13 -1006 -5 -7 -6 -15 -1 -18 4 -2 9 -95 9 -205 l1 -200
-69 2 c-65 2 -85 9 -56 20 8 4 7 6 -3 6 -8 1 -30 -8 -48 -19 -41 -25 -42 -25
-42 4 0 14 -4 28 -10 31 -15 9 -12 22 7 29 9 4 20 1 25 -6 6 -10 8 -10 8 1 0
8 -8 20 -17 27 -16 12 -15 13 10 14 15 0 42 -7 60 -16 l32 -15 -27 25 c-16 14
-28 27 -28 29 0 2 12 3 28 1 l27 -4 -26 12 c-15 8 -24 19 -21 27 3 8 0 11 -7
7 -6 -4 -21 -9 -33 -11 -19 -4 -17 0 12 30 21 22 46 36 71 40 22 4 37 10 34
15 -3 5 1 11 7 13 7 3 -7 6 -32 6 -25 0 -65 -8 -89 -19 -41 -19 -72 -19 -42
-1 11 7 11 9 0 13 -8 3 6 12 31 21 l45 16 -40 -5 c-22 -3 -48 -8 -59 -11 -12
-3 -16 -1 -12 6 4 6 14 11 22 11 8 0 13 3 13 8 -6 38 41 98 68 87 8 -2 12 -1
8 4 -3 5 1 12 7 14 7 3 4 6 -6 6 -11 1 -28 -7 -38 -16 -15 -14 -21 -14 -27 -4
-5 7 -11 12 -15 12 -25 -3 -26 3 -1 9 l30 8 -32 1 c-18 0 -33 -4 -33 -10 0 -5
-5 -7 -10 -4 -8 5 -7 12 2 23 11 14 10 15 -7 8 -11 -5 -28 -11 -37 -13 -10 -3
-18 -9 -18 -14 0 -5 -5 -9 -11 -9 -13 0 -1 62 14 72 7 4 7 11 -2 21 -8 10 -9
17 -1 22 17 11 11 20 -15 21 -19 2 -35 -10 -65 -48 -22 -28 -40 -45 -40 -38 0
7 -3 11 -6 7 -3 -3 -16 3 -27 14 -27 25 -32 11 -13 -35 8 -19 11 -38 6 -41 -4
-3 -11 7 -14 21 -8 31 -47 94 -71 114 -15 13 -16 11 -12 -18 3 -17 15 -45 26
-61 12 -16 21 -34 21 -40 0 -6 5 -11 12 -11 6 0 8 -3 5 -7 -4 -3 -16 2 -28 13
-20 18 -20 18 -13 -11 3 -17 16 -40 27 -52 31 -34 11 -28 -37 12 -58 47 -69
44 -21 -6 27 -27 33 -38 20 -33 -17 6 -16 3 6 -22 25 -27 26 -30 9 -47 -16
-16 -18 -16 -33 1 -23 25 -21 35 4 22 11 -7 23 -10 25 -7 8 8 -51 52 -86 64
l-35 12 30 -24 c17 -14 26 -25 22 -25 -4 0 -3 -8 2 -18 7 -13 6 -23 -1 -30
-13 -13 -29 -16 -26 -4 5 20 -15 53 -29 48 -12 -5 -14 -1 -9 19 5 18 2 27 -9
31 -8 4 -15 13 -15 21 0 8 -4 12 -9 9 -5 -3 -7 -15 -4 -26 3 -11 0 -20 -6 -20
-7 0 -7 -7 1 -25 6 -13 15 -22 19 -19 5 3 9 -3 9 -13 0 -10 6 -36 14 -58 24
-72 27 -105 10 -105 -9 0 -14 7 -12 18 1 10 -10 31 -25 47 l-28 30 7 -30 c4
-16 11 -31 16 -33 4 -2 8 -12 8 -23 0 -17 17 -25 43 -20 5 1 6 -3 3 -8 -4 -5
-2 -12 4 -16 14 -8 43 -112 35 -125 -10 -16 -35 8 -36 34 -1 17 -2 17 -6 3 -6
-21 -17 -22 -49 0 -22 14 -27 14 -34 2 -7 -10 3 -25 33 -55 57 -55 87 -90 87
-102 0 -5 9 -21 20 -35 17 -22 18 -29 9 -51 -14 -31 -29 -35 -22 -6 6 22 -7
26 -25 8 -9 -9 -12 -8 -12 7 0 17 -2 18 -10 5 -8 -13 -10 -12 -10 3 0 10 -4
15 -10 12 -5 -3 -10 1 -10 9 0 10 -6 13 -15 10 -8 -4 -15 -2 -15 3 0 6 -18 18
-40 28 l-40 18 0 79 c0 78 0 78 24 72 21 -5 24 -3 19 15 -3 12 -10 21 -15 21
-5 0 -6 -6 -3 -12 4 -7 -1 -4 -9 6 -20 24 -22 122 -3 129 6 3 -1 6 -18 6 -16
0 -35 -3 -41 -7 -14 -9 -26 -132 -13 -132 5 0 7 -11 3 -25 -4 -17 -2 -25 7
-25 10 0 10 -3 1 -12 -7 -7 -12 -39 -12 -75 0 -43 -4 -63 -12 -64 -7 0 -2 -5
11 -10 19 -8 21 -12 11 -24 -7 -8 -10 -25 -8 -38 4 -21 1 -23 -31 -20 -20 1
-38 -3 -43 -10 -6 -9 -10 -9 -20 1 -13 13 -89 15 -128 2 -14 -4 -18 -9 -10 -9
91 -9 240 -31 259 -38 23 -9 22 -10 -16 -16 -23 -4 -55 -18 -71 -32 -20 -16
-38 -24 -54 -21 -12 3 -26 5 -30 5 -5 1 -8 9 -8 18 0 15 -2 14 -16 -3 -8 -10
-13 -13 -9 -6 4 7 -1 15 -12 18 -10 3 -26 10 -35 15 -10 5 -27 9 -37 9 -11 0
-22 4 -25 9 -3 5 -43 14 -88 20 -141 20 -125 5 -133 132 -6 82 -11 112 -22
116 -8 3 -60 1 -116 -6 -56 -6 -160 -14 -232 -17 -71 -3 -152 -8 -180 -9 -86
-6 -413 -5 -428 1 -8 3 -18 1 -21 -5 -4 -6 -19 -8 -35 -5 -15 3 -45 1 -67 -5
-21 -6 -111 -13 -199 -16 -88 -3 -171 -8 -184 -11 -40 -9 -233 -16 -451 -16
-174 -1 -207 -4 -217 -17 -16 -21 -6 -272 11 -283 6 -4 36 -12 66 -18 30 -6
82 -19 115 -29 l60 -17 -75 -8 c-41 -4 -82 -12 -91 -16 -17 -9 -39 -121 -39
-196 0 -34 2 -35 28 -30 26 6 192 8 240 4 40 -4 23 -16 -30 -22 -225 -22 -291
-26 -303 -16 -8 7 -26 8 -53 1 -29 -6 -42 -5 -45 3 -3 8 -11 7 -31 -2 -23 -10
-27 -10 -32 6 -12 35 -30 66 -56 94 -21 22 -35 28 -70 28 -66 0 -137 -22 -199
-62 -55 -36 -56 -37 -68 -105 -6 -37 -10 -103 -8 -146 1 -44 -2 -94 -9 -112
-7 -20 -8 -37 -2 -43 5 -5 53 -7 107 -5 69 3 107 1 132 -10 l34 -14 -85 -12
c-156 -23 -186 -31 -210 -56 -35 -37 -41 -106 -44 -512 -1 -68 -4 -123 -7
-123 -3 0 -4 -46 -1 -102 3 -57 5 -120 5 -141 1 -20 5 -37 10 -37 5 0 5 -6 -1
-13 -7 -8 -7 -18 -2 -27 14 -22 12 -53 -2 -44 -8 5 -9 2 -5 -9 3 -10 3 -17 -1
-17 -13 1 -42 27 -37 33 3 4 2 5 -2 2 -3 -3 -15 2 -25 12 -10 9 -18 12 -18 7
0 -6 29 -29 63 -51 35 -23 69 -48 74 -55 7 -8 13 -105 15 -251 3 -130 7 -239
10 -242 9 -10 174 -65 193 -65 12 0 25 -4 30 -9 6 -6 22 -11 37 -13 15 -2 30
-7 34 -11 4 -4 17 -7 29 -7 13 0 28 -7 35 -15 13 -16 35 -21 26 -6 -4 5 3 7
13 4 11 -3 22 -11 25 -19 3 -8 14 -14 24 -14 11 0 25 -6 31 -13 11 -14 96 -23
87 -9 -2 4 4 8 15 8 10 0 19 -6 19 -13 0 -7 8 -14 18 -14 9 -1 22 -2 27 -4 6
-1 17 -3 26 -3 19 -2 65 -41 62 -53 -2 -4 4 -6 12 -3 17 7 20 24 5 24 -5 0
-10 5 -10 10 0 6 14 3 32 -6 29 -15 32 -15 40 0 5 9 14 13 20 10 7 -4 2 -14
-13 -26 -19 -15 -20 -18 -5 -14 15 5 17 2 13 -14 -3 -14 -1 -20 6 -17 7 2 13
13 15 25 2 12 6 22 10 23 4 0 17 2 30 5 15 3 22 -1 22 -11 0 -8 5 -15 11 -15
5 0 8 4 5 8 -3 5 11 9 32 9 32 0 34 -1 14 -10 -23 -10 -30 -27 -11 -27 5 0 7
-5 4 -11 -4 -6 -9 -8 -12 -5 -3 2 -22 -2 -43 -9 -35 -12 -39 -12 -43 3 -3 12
-5 10 -6 -5 -1 -25 7 -27 59 -14 19 5 50 12 69 15 29 5 32 4 26 -12 -5 -13 -2
-12 14 4 14 15 29 21 53 19 28 -2 32 -6 30 -25 -3 -15 0 -20 8 -15 6 4 9 17 6
29 -4 16 -1 23 9 23 10 0 13 -6 9 -19 -4 -14 -1 -17 15 -15 28 4 36 14 23 29
-8 10 -2 14 26 15 21 2 32 0 26 -5 -6 -4 -13 -15 -17 -25 -4 -10 -11 -16 -16
-13 -5 3 -11 -1 -14 -8 -5 -12 2 -14 29 -11 33 3 34 2 20 -14 -15 -16 -13 -17
27 -17 36 1 42 4 45 24 3 20 5 21 15 8 18 -22 39 -24 42 -3 3 14 -1 18 -14 14
-9 -2 -21 1 -27 8 -9 8 -1 11 30 10 54 -1 72 4 54 17 -10 8 -10 9 2 5 8 -2 14
-12 12 -22 -2 -10 1 -14 7 -10 6 3 18 -1 27 -9 14 -14 12 -15 -18 -11 -26 4
-29 3 -13 -4 17 -8 18 -10 3 -10 -10 -1 -18 -6 -18 -12 0 -10 45 -7 86 7 14 4
15 3 5 -4 -10 -7 -10 -11 -1 -17 7 -4 16 -2 20 5 4 7 13 10 18 6 6 -4 20 -1
32 6 16 10 24 10 40 1 16 -11 21 -10 30 7 6 11 15 18 21 14 6 -4 6 -11 -2 -20
-10 -12 -9 -13 4 -8 8 3 18 12 21 20 3 8 12 14 21 14 13 0 14 -4 4 -22 -12
-23 -12 -23 10 -4 26 24 26 25 -1 35 -15 5 -26 4 -30 -3 -6 -8 -8 -7 -8 1 0
10 -6 10 -25 1 -18 -8 -29 -8 -36 -1 -8 8 -7 11 2 10 8 -1 14 1 14 4 0 13 28
38 37 33 5 -3 20 2 34 11 13 9 29 13 34 10 6 -3 10 1 10 10 0 9 -6 15 -12 12
-7 -2 -18 3 -25 12 -18 24 -16 35 4 20 16 -12 17 -12 7 1 -19 25 -24 50 -11
47 7 -1 15 -6 19 -12 4 -6 8 -2 8 8 0 9 7 17 15 17 8 0 15 4 15 9 0 5 8 12 17
14 10 3 3 5 -15 6 -31 1 -32 2 -17 17 10 10 13 24 9 36 -4 15 -3 18 6 13 9 -5
11 -4 6 4 -4 6 -2 18 4 26 7 8 10 22 6 30 -3 8 -1 15 5 15 6 0 8 4 5 8 -13 21
-13 65 -1 89 9 16 11 31 6 36 -5 5 -7 15 -4 22 2 8 -1 23 -7 35 -7 13 -8 20
-2 16 5 -3 12 0 15 7 2 6 3 125 1 262 -3 217 -6 250 -19 247 -8 -2 -15 2 -15
8 0 5 -7 10 -15 10 -8 0 -15 4 -15 9 0 6 15 7 33 4 27 -4 33 -2 34 14 1 10 6
38 12 63 6 25 10 112 11 193 0 82 4 156 10 166 12 22 75 40 160 45 35 2 66 8
68 14 2 6 10 8 18 5 9 -3 14 -20 14 -48 0 -24 5 -47 12 -51 7 -4 83 -7 169 -6
178 2 170 6 165 -89 -1 -27 1 -54 4 -59 3 -5 25 -12 48 -15 34 -4 47 -1 64 15
12 11 28 20 36 20 8 0 62 23 121 51 58 28 117 55 131 61 14 6 34 15 45 21 12
6 96 12 205 13 102 1 249 5 326 8 79 4 153 2 166 -3 52 -20 53 -15 50 289 -3
277 -3 280 17 280 19 0 21 -6 21 -75 0 -43 4 -75 10 -75 6 0 10 24 10 54 0 76
6 86 49 86 42 1 114 25 119 40 4 12 53 13 107 0 22 -5 41 -7 44 -5 2 3 -10 8
-28 11 -44 9 -52 27 -10 22 33 -3 34 -2 37 34 3 31 -2 43 -24 63 -15 14 -35
25 -43 23 -9 -1 -35 10 -59 26 -24 15 -49 29 -55 32 -7 2 -21 17 -32 34 -23
34 -38 21 -29 -24 4 -19 3 -26 -5 -22 -15 10 -14 131 2 144 19 16 95 34 172
41 l70 6 3 72 3 71 87 6 c163 12 237 20 208 24 l-28 4 4 80 5 80 -46 -6 c-25
-4 -143 -16 -261 -27 -118 -11 -222 -22 -231 -24 -25 -8 -38 -47 -40 -122 -3
-88 -8 -105 -28 -98 -10 3 -20 -4 -28 -22 -15 -31 -17 -53 -5 -53 12 0 2 -59
-11 -67 -5 -3 -7 -2 -4 4 4 6 2 38 -4 73 -5 35 -7 70 -4 79 3 8 8 53 10 100 3
46 7 92 10 103 7 21 15 23 165 39 63 7 119 16 124 20 10 9 -32 22 -55 17 -27
-6 -8 34 37 78 24 24 40 44 35 44 -16 0 -86 -51 -112 -82 -22 -26 -27 -28 -37
-15 -11 12 -8 19 15 38 15 12 20 19 10 16 -28 -10 -19 10 16 34 17 12 34 24
37 26 2 2 -2 8 -9 12 -18 11 41 41 83 42 31 0 31 0 6 11 l-25 10 25 10 c38 15
97 18 125 8 24 -9 25 -12 25 -110 0 -88 -2 -100 -17 -101 -10 -1 -38 -3 -63
-4 -25 -2 -51 -4 -57 -4 -7 -1 -13 -5 -13 -11 0 -5 7 -7 15 -4 8 4 15 1 15 -6
0 -10 30 -12 139 -6 151 7 171 11 171 32 0 10 -15 14 -60 14 l-60 0 0 1331 0
1332 28 -6 c72 -14 464 -68 468 -64 2 1 4 24 5 50 2 26 4 47 7 47 10 0 30 -28
24 -34 -3 -4 1 -4 11 0 9 3 17 1 17 -5 0 -6 7 -8 16 -4 13 5 15 2 9 -18 -7
-23 -7 -24 9 -4 13 17 17 18 25 5 9 -12 11 -12 17 3 6 17 7 17 20 0 13 -17 13
-17 14 0 0 20 20 24 20 3 0 -15 83 -17 97 -2 4 5 3 6 -4 2 -7 -4 -13 -2 -13 3
0 6 5 12 10 12 20 3 25 4 38 12 7 5 12 4 12 -2 0 -6 -4 -11 -10 -11 -5 0 -10
-7 -10 -15 0 -17 31 -9 43 12 12 20 26 15 20 -7 -7 -26 9 -26 25 0 7 12 17 18
23 14 7 -4 6 -10 -1 -19 -16 -19 -3 -39 14 -22 8 6 11 16 8 21 -3 5 2 6 12 3
10 -4 19 -7 22 -7 2 0 1 -7 -2 -15 -4 -8 -1 -15 6 -15 8 0 11 10 8 28 -3 24
-1 27 29 29 23 1 33 -3 33 -13 0 -8 4 -14 9 -14 15 0 24 20 14 33 -4 7 -1 5 9
-5 21 -23 42 -24 34 0 -4 12 -1 11 13 -5 22 -26 43 -31 35 -8 -7 18 -4 18 32
5 19 -7 30 -7 40 1 11 9 14 7 14 -7 0 -11 3 -15 8 -8 12 18 39 23 52 11 10
-10 11 -8 6 8 -6 15 -4 17 5 8 9 -9 15 -8 26 3 19 19 33 18 33 -2 0 -15 3 -14
28 2 24 16 25 16 13 1 -8 -10 -11 -20 -7 -24 3 -3 6 -1 6 6 0 7 6 11 14 8 10
-4 13 0 11 14 -2 11 0 17 6 14 5 -4 9 -13 9 -20 0 -10 9 -14 25 -13 16 2 25 8
25 20 0 11 5 15 15 12 8 -4 15 -13 15 -21 0 -8 5 -11 10 -8 6 3 10 1 10 -6 0
-7 3 -9 6 -6 4 4 1 13 -6 22 -11 13 -8 15 16 15 21 0 25 -3 15 -9 -11 -7 -9
-10 8 -16 13 -4 25 -4 28 -1 4 3 12 -3 20 -14 8 -11 19 -20 24 -20 5 0 2 11
-8 25 -11 15 -25 23 -36 21 -9 -2 -15 0 -11 5 9 15 44 10 44 -6 0 -9 6 -12 16
-8 8 3 13 12 10 19 -3 8 -1 14 4 14 6 0 10 -10 10 -22 0 -18 2 -20 9 -8 6 8 7
19 3 25 -3 5 2 4 11 -4 14 -11 18 -11 23 3 3 9 10 13 16 10 5 -3 17 1 26 9 15
14 20 14 42 1 14 -9 17 -13 8 -10 -12 3 -18 0 -18 -10 0 -8 5 -12 10 -9 6 4
18 1 26 -6 12 -9 18 -9 27 0 9 9 9 14 -3 21 -14 9 -12 10 15 10 3 0 4 -3 3 -7
-1 -5 11 -11 28 -14 17 -3 28 -10 26 -19 -3 -11 0 -11 12 0 9 7 16 18 16 24 0
7 -3 7 -8 -1 -6 -9 -11 -8 -18 5 -9 14 -7 17 13 17 13 0 26 -7 29 -18 3 -9 9
-15 14 -12 5 3 13 -3 19 -12 10 -17 10 -17 11 0 0 11 4 15 12 11 7 -5 8 -3 3
6 -8 13 10 30 33 30 9 0 11 -7 7 -21 -6 -18 -5 -19 14 -7 18 11 23 11 31 -2 8
-12 10 -11 10 8 0 12 4 22 9 22 5 0 8 -12 5 -26 -3 -17 -1 -23 6 -19 6 4 9 13
6 21 -3 7 -1 16 4 19 6 4 10 -2 10 -12 0 -14 2 -15 9 -4 5 8 7 20 4 27 -2 6 0
15 5 18 5 3 9 -2 8 -11 0 -9 5 -18 12 -20 6 -3 12 2 12 10 0 10 8 14 24 13 16
-2 23 1 20 9 -3 7 -16 10 -30 7 -13 -2 -24 0 -24 7 0 5 7 8 15 5 11 -5 14 -1
9 12 -5 15 -4 16 4 5 9 -12 13 -12 27 2 9 10 12 17 6 17 -12 0 -2 32 13 42 7
5 7 8 1 8 -6 0 -11 9 -12 21 -2 17 1 18 13 9 11 -10 14 -9 14 4 0 9 -7 16 -15
16 -9 0 -15 9 -15 25 0 14 4 25 10 25 5 0 7 -7 4 -15 -4 -8 -1 -15 5 -15 6 0
11 8 11 17 0 9 3 13 7 10 3 -4 12 -2 20 4 10 9 13 7 13 -7 1 -19 1 -19 11 0 8
13 8 20 -1 26 -9 5 -8 9 3 13 8 3 19 1 25 -5 8 -8 15 -8 25 0 11 9 16 7 25
-14 17 -35 15 -52 -3 -28 -8 10 -15 14 -15 7 0 -6 5 -15 10 -18 6 -4 8 -14 5
-24 -4 -15 26 -61 40 -61 9 0 5 9 -12 26 -17 17 -17 17 5 12 12 -3 22 -3 22 2
0 4 -9 10 -21 13 -12 3 -18 10 -14 16 3 6 11 9 16 6 15 -10 10 13 -7 30 -15
15 -15 17 5 31 12 9 18 20 15 26 -4 7 -2 8 4 4 7 -4 9 -17 6 -31 -3 -12 -1
-26 5 -29 6 -4 11 -12 11 -17 0 -6 -4 -7 -10 -4 -5 3 -10 -1 -10 -10 0 -12 4
-14 19 -5 11 5 21 13 23 17 3 5 3 3 2 -4 -3 -12 25 -27 34 -18 3 3 2 5 -2 5
-4 0 -2 9 4 20 7 12 16 17 27 13 10 -4 14 -2 9 5 -3 6 -1 14 5 18 8 4 9 3 5
-4 -4 -7 -2 -12 5 -12 7 0 10 -3 6 -6 -3 -4 0 -13 8 -21 8 -8 15 -23 15 -33 0
-13 5 -17 15 -14 11 4 12 11 5 23 -8 15 -4 18 20 19 37 1 49 8 59 35 6 17 9
13 15 -21 9 -57 23 -53 20 6 -1 27 -7 46 -13 45 -6 -2 -8 4 -4 14 4 9 2 14 -3
10 -6 -3 -16 -2 -23 2 -9 6 -10 11 -2 15 6 4 11 1 11 -6 1 -7 8 -2 16 12 8 14
13 17 10 8 -2 -9 4 -26 15 -39 10 -12 19 -29 19 -38 0 -14 -2 -14 -10 -1 -5 8
-10 10 -10 4 0 -6 7 -17 15 -24 12 -10 15 -10 15 1 0 11 2 11 9 0 11 -17 61
-27 61 -12 0 5 9 9 19 8 11 0 17 -5 15 -9 -8 -12 20 -10 33 3 7 7 12 6 16 -5
4 -10 1 -16 -8 -16 -8 0 -15 -4 -15 -10 0 -5 7 -10 16 -10 8 0 13 -4 10 -9 -3
-5 -16 -7 -29 -3 -19 5 -20 3 -9 -11 13 -15 58 -17 82 -2 6 4 9 -2 7 -14 -4
-27 -17 -39 -17 -17 0 9 -4 14 -10 11 -6 -3 -10 -16 -10 -29 0 -12 -6 -28 -12
-35 -10 -11 -10 -14 0 -18 6 -3 12 -9 12 -15 0 -6 -7 -8 -15 -4 -8 3 -15 1
-15 -5 0 -6 -7 -4 -15 5 -8 8 -15 18 -15 21 0 4 7 5 15 1 20 -7 19 -4 -5 17
-20 17 -21 17 -18 -17 1 -19 8 -42 16 -53 12 -17 14 -17 23 0 6 9 15 17 22 17
19 0 36 45 25 66 -9 18 -8 18 5 2 19 -24 30 -23 22 2 -3 11 -2 20 3 20 6 0 9
-13 8 -30 -1 -16 2 -30 7 -30 4 0 5 -6 1 -12 -4 -8 -3 -10 2 -5 5 5 9 14 9 20
0 15 27 16 32 2 5 -17 -47 -36 -68 -24 -15 8 -19 6 -19 -6 0 -9 4 -13 10 -10
7 4 7 -2 0 -19 -7 -20 -6 -24 5 -19 18 6 20 -18 3 -36 -10 -11 -10 -13 0 -7 8
5 12 0 12 -13 0 -16 -6 -21 -29 -21 -16 0 -34 -6 -40 -14 -7 -8 -22 -12 -34
-9 -16 3 -18 2 -8 -5 10 -7 10 -14 2 -30 -14 -26 -14 -82 -1 -116 13 -36 50
-52 81 -35 13 7 34 12 46 10 12 -1 31 3 43 9 17 9 20 17 14 46 -5 27 -3 34 10
34 19 0 20 9 2 33 -14 18 -15 18 -24 0 -8 -13 -10 13 -9 95 0 61 5 112 9 112
4 0 8 6 8 14 0 8 7 16 15 20 18 7 20 -15 3 -32 -9 -9 -9 -12 1 -12 8 0 10 -7
6 -20 -5 -14 -2 -20 9 -20 20 0 21 -24 1 -40 -16 -13 -20 -40 -7 -40 5 0 19
11 32 25 18 19 26 22 37 14 10 -9 13 -8 13 5 0 9 -4 16 -9 16 -10 0 -3 39 11
57 10 13 -7 27 -22 18 -5 -3 -10 -2 -10 2 0 5 9 14 20 21 12 7 17 18 14 29 -5
16 -4 16 8 2 21 -25 55 -32 62 -13 3 9 4 20 0 25 -8 14 6 10 22 -6 14 -13 14
-15 0 -15 -9 0 -16 -4 -16 -10 0 -17 37 -11 45 8 15 34 14 60 -2 58 -9 0 -18
6 -20 14 -4 13 -3 13 5 1 9 -13 13 -13 28 0 10 8 15 9 11 2 -4 -6 -2 -15 4
-19 8 -5 8 -8 0 -14 -7 -3 7 -7 29 -8 37 -2 40 0 26 14 -9 8 -20 13 -25 9 -5
-3 -12 -1 -16 5 -3 5 3 10 14 10 29 0 26 24 -6 54 -22 20 -25 28 -15 38 9 9
12 7 12 -11 0 -12 4 -20 10 -16 5 3 7 12 4 19 -3 7 2 19 11 26 9 7 15 8 15 2
0 -6 -6 -13 -12 -15 -10 -4 -10 -8 1 -15 8 -6 9 -12 3 -16 -7 -4 -6 -14 1 -31
12 -26 33 -36 24 -11 -3 8 1 17 8 20 11 4 12 0 5 -20 -14 -35 -12 -51 4 -57
10 -4 13 1 11 19 -1 13 2 24 6 24 5 0 9 -4 9 -10 0 -5 8 -7 18 -4 15 5 15 4
-2 -10 -10 -8 -15 -20 -11 -26 5 -8 11 -5 21 7 13 17 14 17 7 -1 -5 -14 -3
-17 6 -12 7 5 11 17 8 27 -9 34 7 20 32 -26 17 -32 27 -42 32 -33 6 8 2 18 -8
26 -9 6 -12 12 -5 12 7 0 12 7 12 16 0 8 -4 12 -10 9 -6 -3 -10 0 -10 8 0 19
30 17 31 -2 1 -9 1 -20 0 -24 -1 -5 3 -6 8 -3 17 11 23 -15 7 -33 -14 -15 -14
-20 -1 -45 19 -36 19 -47 0 -40 -8 4 -13 10 -10 14 3 5 -2 7 -12 6 -9 -2 -19
-11 -23 -21 -6 -16 -7 -17 -23 0 -10 9 -24 15 -31 12 -8 -3 -17 1 -20 10 -4
11 -2 14 9 9 12 -4 15 2 14 27 -1 18 -3 25 -6 16 -10 -38 -73 -23 -73 17 0 8
-5 14 -10 14 -7 0 -7 -6 0 -20 7 -14 7 -20 0 -20 -5 0 -10 4 -10 9 0 12 -79
-6 -108 -25 -12 -8 -27 -12 -32 -9 -6 3 -10 -1 -10 -9 0 -8 -9 -30 -19 -48
-44 -77 -35 -155 25 -208 34 -29 41 -31 88 -26 28 3 61 7 74 9 13 1 20 7 17
15 -2 7 4 12 15 12 11 0 20 -4 20 -10 0 -5 -5 -10 -11 -10 -5 0 -7 -5 -4 -11
5 -6 12 -4 22 8 13 16 14 16 9 1 -3 -10 -1 -20 4 -23 4 -3 11 9 15 26 4 18 10
27 14 20 5 -7 32 -10 74 -9 37 2 62 5 57 6 -14 5 -13 42 1 42 6 0 9 -7 5 -15
-3 -9 0 -15 9 -15 8 0 15 7 15 15 0 23 -4 30 -17 29 -7 -1 -11 2 -8 6 5 8 -18
20 -38 20 -7 0 -4 -7 6 -14 17 -13 17 -14 -1 -18 -17 -5 -19 2 -21 53 -2 54
10 78 22 47 3 -8 6 -5 6 5 1 13 6 17 20 12 14 -4 23 1 32 16 11 21 13 21 24 6
7 -10 13 -45 14 -79 1 -74 13 -92 55 -83 17 3 59 8 94 11 57 5 62 4 56 -13 -5
-15 -3 -15 13 3 21 25 83 38 83 17 0 -21 38 -15 51 8 9 17 8 20 -2 14 -8 -5
-10 -4 -5 4 5 7 9 24 11 37 2 21 -1 25 -16 21 -14 -4 -19 0 -19 14 0 10 5 19
11 19 6 0 7 5 2 13 -4 6 -10 35 -14 62 -3 28 -9 57 -13 66 -5 11 -2 19 9 22
12 5 14 1 9 -18 -4 -15 -2 -25 5 -25 6 0 13 11 17 25 5 19 10 23 19 15 9 -7
10 -22 4 -53 -5 -23 -12 -56 -15 -73 -4 -19 0 -42 9 -61 12 -23 13 -33 4 -42
-8 -8 -5 -11 13 -11 14 0 48 -1 77 -3 36 -2 54 1 57 10 3 7 17 13 31 13 15 0
24 4 20 10 -4 6 -11 8 -16 4 -6 -3 -5 3 3 15 7 12 21 24 31 27 10 3 16 11 14
18 -3 7 1 13 9 13 23 0 20 -160 -3 -178 -17 -13 -17 -12 -3 6 11 16 11 17 0 8
-29 -26 -20 -41 24 -37 103 7 104 8 99 24 -4 13 -3 13 9 0 21 -24 41 -24 28
-1 -14 26 -13 31 6 31 11 0 14 -6 10 -17 -5 -15 -4 -15 9 1 19 25 19 32 0 40
-8 3 -15 1 -15 -4 0 -6 -9 -10 -21 -10 -11 0 -18 -4 -14 -9 3 -5 -8 -9 -25 -9
-29 1 -30 2 -29 47 1 25 4 36 6 24 5 -24 18 -30 27 -14 4 5 0 12 -6 14 -8 4
-7 6 4 6 9 1 23 4 32 7 10 4 19 -3 27 -20 12 -25 49 -37 49 -16 0 6 -6 10 -14
10 -22 0 -41 29 -28 42 9 9 12 7 12 -7 0 -10 3 -15 6 -12 4 3 15 2 24 -3 13
-7 20 -6 23 4 8 19 -3 28 -19 15 -7 -6 -15 -6 -18 -1 -3 6 3 12 14 15 11 3 22
2 24 -2 3 -4 33 -4 68 1 35 5 90 11 123 14 74 7 99 19 92 45 -3 13 0 19 10 19
10 0 14 -6 11 -18 -4 -16 3 -18 58 -20 35 -2 74 2 86 9 18 10 20 9 15 -5 -3
-8 -2 -18 4 -21 5 -4 7 -11 3 -16 -3 -5 -10 -7 -15 -4 -18 12 -9 -22 11 -40
24 -21 26 -35 5 -35 -9 0 -12 6 -9 15 4 9 0 15 -10 15 -10 0 -13 -6 -10 -15 4
-11 -1 -15 -17 -15 -23 -1 -23 -1 -4 -13 11 -6 22 -12 25 -12 3 0 11 -4 18 -8
6 -5 12 -4 12 2 0 5 16 15 35 21 19 6 35 16 35 21 0 6 -4 7 -10 4 -5 -3 -10
-1 -10 4 0 6 12 11 26 11 24 0 26 3 20 31 -5 26 -3 30 10 25 9 -3 17 -6 20 -6
2 0 1 -6 -2 -14 -3 -8 3 -19 14 -25 14 -7 18 -17 15 -31 -6 -22 -11 -24 -32
-11 -7 5 -11 14 -7 20 4 6 2 9 -7 5 -9 -3 -12 -14 -10 -29 4 -18 11 -23 31
-21 19 2 29 12 38 37 15 42 18 71 5 50 -7 -11 -9 -11 -14 0 -5 12 -8 11 -17
-1 -10 -13 -11 -12 -6 4 4 12 0 24 -11 32 -12 9 -13 13 -5 14 7 0 12 7 10 16
-2 10 3 19 10 21 8 3 10 -1 6 -11 -4 -12 -2 -15 9 -11 8 4 17 -1 21 -10 3 -9
2 -13 -4 -10 -6 3 -10 -3 -10 -15 0 -12 4 -19 8 -16 5 3 17 -5 27 -17 13 -15
20 -18 23 -8 2 7 -1 17 -9 21 -15 10 -21 40 -8 40 5 0 10 -8 10 -17 1 -10 5 0
8 22 6 38 8 40 41 40 19 0 38 4 42 10 4 5 10 6 15 2 11 -11 -19 -28 -37 -21
-9 3 -7 -2 5 -14 15 -14 21 -16 23 -5 2 7 10 13 17 13 9 0 12 6 9 15 -4 10 0
15 15 15 15 0 21 -6 21 -24 0 -24 -25 -43 -34 -25 -2 5 -3 4 -2 -3 2 -7 11
-13 21 -13 12 0 21 -9 25 -25 l6 -25 7 25 c4 14 7 35 7 48 0 12 4 22 10 22 5
0 7 8 4 18 -5 14 -4 15 5 2 10 -13 13 -13 22 2 11 20 60 21 52 1 -5 -14 -24
-13 -34 1 -4 5 -10 -1 -14 -13 -3 -11 -13 -21 -21 -21 -8 0 -14 -9 -14 -21 0
-19 2 -18 24 6 17 18 26 22 29 13 4 -11 7 -10 15 0 7 11 10 10 16 -3 9 -23 8
-24 -14 -18 -15 4 -20 1 -19 -13 2 -29 17 -72 18 -51 1 20 17 23 24 5 4 -8 6
-7 6 3 1 9 -8 19 -19 22 -11 3 -20 11 -20 17 0 7 6 10 14 7 19 -7 42 18 26 28
-8 5 -8 11 -1 19 6 7 8 16 4 19 -3 4 -1 7 5 7 7 0 12 -7 12 -15 0 -8 -5 -15
-11 -15 -6 0 -3 -8 7 -17 11 -11 13 -18 5 -21 -6 -2 -11 -10 -11 -18 0 -9 5
-12 10 -9 6 3 10 2 10 -3 0 -5 12 -7 26 -4 18 3 23 9 19 20 -5 14 -3 14 12 -1
18 -15 19 -15 19 6 0 12 -3 24 -7 27 -3 3 -3 14 2 25 4 12 8 14 8 6 1 -11 4
-10 14 3 13 17 14 18 20 2 4 -9 3 -14 -2 -11 -5 3 -13 -5 -17 -17 -12 -37 -13
-88 -3 -88 6 0 7 -4 4 -10 -3 -5 -2 -10 4 -10 6 0 8 12 5 30 -4 19 -2 30 4 30
6 0 9 -8 6 -17 -5 -14 -4 -15 4 -4 6 8 8 20 6 26 -3 8 6 12 25 11 33 -1 44
-29 17 -39 -10 -4 -13 -1 -9 9 3 7 1 14 -5 14 -5 0 -12 -13 -14 -30 -4 -29 5
-40 17 -20 4 6 11 8 16 5 5 -4 9 0 9 8 0 8 7 18 16 21 8 3 13 10 9 15 -3 5 0
13 6 17 8 4 9 -3 4 -25 -4 -18 -3 -31 3 -31 13 0 23 27 16 45 -4 9 0 15 10 15
9 0 16 -8 16 -20 0 -11 -4 -20 -10 -20 -5 0 -10 -6 -10 -14 0 -18 -31 -30 -40
-16 -5 8 -9 6 -14 -6 -3 -9 -4 -19 -1 -22 3 -3 5 1 5 9 0 8 7 1 15 -15 18 -34
11 -48 -11 -20 -15 18 -15 18 -5 -2 21 -43 61 -56 61 -19 0 7 6 15 13 18 10 4
10 7 -1 18 -14 16 -16 55 -2 64 6 3 9 25 9 48 -1 23 -3 34 -6 25 -7 -28 -21
-21 -15 7 2 14 8 22 13 19 5 -3 9 694 9 1656 l0 1660 -529 0 c-328 -1 -531 -5
-533 -11 -4 -12 -159 -70 -170 -63 -4 3 -8 1 -8 -4 0 -5 -21 -17 -47 -27 -27
-10 -109 -41 -183 -70 -369 -144 -402 -156 -418 -150 -7 2 -11 1 -8 -4 7 -10
-152 -73 -165 -65 -5 3 -9 0 -9 -6 0 -7 -7 -9 -16 -6 -8 3 -13 2 -10 -2 4 -6
-238 -105 -579 -237 -38 -15 -126 -49 -195 -76 -69 -28 -184 -72 -257 -100
-73 -27 -208 -80 -300 -117 l-168 -67 -3 -492 -2 -492 -73 -21 c-39 -12 -121
-37 -182 -55 -161 -49 -685 -203 -717 -211 l-28 -6 -3 1143 -2 1144 -3 -1146z
m2533 -1739 c3 -5 1 -10 -4 -10 -6 0 -11 5 -11 10 0 6 2 10 4 10 3 0 8 -4 11
-10z m-6438 -46 c-3 -3 -12 -4 -19 -1 -8 3 -5 6 6 6 11 1 17 -2 13 -5z m5007
-16 c-3 -4 -9 -8 -15 -8 -5 0 -9 4 -9 8 0 5 7 9 15 9 8 0 12 -4 9 -9z m96 8
c0 -3 -4 -8 -10 -11 -5 -3 -10 -1 -10 4 0 6 5 11 10 11 6 0 10 -2 10 -4z m644
-28 c-9 -14 -23 2 -17 18 4 12 8 13 14 3 4 -7 5 -17 3 -21z m712 19 c8 3 14 0
14 -7 0 -6 -5 -8 -12 -4 -7 5 -9 2 -5 -9 4 -11 2 -14 -9 -10 -7 3 -14 10 -14
15 0 6 -7 5 -15 -2 -9 -7 -19 -10 -23 -6 -4 4 2 14 12 22 12 9 24 10 29 5 5
-5 16 -7 23 -4z m948 -2 c-6 -16 -24 -21 -24 -7 0 11 11 22 21 22 5 0 6 -7 3
-15z m-2157 -17 c-3 -8 -6 -5 -6 6 -1 11 2 17 5 13 3 -3 4 -12 1 -19z m221 4
c2 -7 -1 -12 -8 -12 -6 0 -8 5 -4 12 5 8 2 9 -10 5 -11 -4 -15 -3 -11 4 8 12
27 7 33 -9z m-4973 -2 c3 -5 1 -10 -4 -10 -6 0 -11 5 -11 10 0 6 2 10 4 10 3
0 8 -4 11 -10z m6880 -10 c3 -5 -3 -6 -14 -3 -10 3 -22 0 -25 -6 -4 -6 -11
-11 -17 -11 -5 0 -4 8 2 19 12 18 43 18 54 1z m-6905 1 c0 -17 -20 -23 -48
-16 -25 7 -25 8 -7 15 28 12 55 12 55 1z m74 -6 c-4 -8 -11 -12 -17 -8 -6 4
-8 0 -4 -11 6 -14 4 -15 -15 -5 -21 11 -21 12 8 24 16 8 30 14 31 14 1 1 0 -6
-3 -14z m5978 -13 c-6 -2 -8 -10 -5 -19 4 -10 2 -14 -4 -10 -6 4 -14 1 -16 -5
-3 -7 -6 -4 -6 6 -1 25 32 63 38 45 2 -7 -1 -15 -7 -17z m-869 11 c-7 -2 -13
-12 -13 -20 0 -9 -3 -14 -6 -10 -10 10 4 37 18 36 10 0 10 -2 1 -6z m1448 -29
c-10 -23 -18 -31 -25 -24 -17 17 -29 11 -23 -10 3 -12 0 -20 -8 -20 -8 0 -11
9 -7 25 3 18 11 25 28 25 13 0 24 5 24 10 0 6 -7 10 -15 10 -8 0 -15 4 -15 9
0 5 13 9 28 9 l28 -1 -15 -33z m66 21 c0 -7 -6 -12 -13 -12 -7 0 -15 5 -17 12
-3 6 3 11 12 11 10 0 18 -5 18 -11z m-123 -4 c3 -5 -1 -14 -9 -21 -13 -10 -15
-9 -15 9 0 21 14 28 24 12z m-1474 -31 c-5 -10 -10 -29 -10 -41 0 -12 -3 -19
-7 -15 -10 10 -11 56 -1 56 4 0 8 7 8 16 0 8 5 12 10 9 7 -4 7 -12 0 -25z
m860 0 c0 -19 -5 -30 -14 -30 -8 0 -13 11 -12 30 1 40 26 40 26 0z m550 20
c-19 -13 -30 -13 -30 0 0 6 10 10 23 10 18 0 19 -2 7 -10z m152 -14 c4 -19 1
-24 -12 -23 -15 1 -16 5 -7 24 13 29 14 29 19 -1z m-202 10 c0 -3 -4 -8 -10
-11 -5 -3 -10 -1 -10 4 0 6 5 11 10 11 6 0 10 -2 10 -4z m-1952 -23 c-3 -20
-48 -53 -61 -46 -14 8 14 32 30 26 12 -5 15 -2 10 10 -5 13 1 21 21 26 2 1 2
-7 0 -16z m42 7 c0 -5 -5 -10 -11 -10 -5 0 -7 5 -4 10 3 6 8 10 11 10 2 0 4
-4 4 -10z m74 -31 c-9 -16 -23 -9 -17 8 4 11 3 14 -5 9 -8 -5 -10 -1 -5 10 6
16 7 16 19 -1 7 -10 11 -22 8 -26z m208 23 c-7 -2 -9 -9 -6 -14 4 -7 2 -8 -4
-4 -6 4 -9 13 -6 21 4 8 11 12 17 8 8 -5 7 -8 -1 -11z m61 -16 c4 4 7 2 7 -4
0 -7 -2 -12 -4 -12 -2 0 -11 -3 -20 -6 -11 -4 -15 2 -14 26 1 30 2 31 13 11 6
-12 14 -18 18 -15z m407 24 c0 -5 -5 -10 -11 -10 -5 0 -7 5 -4 10 3 6 8 10 11
10 2 0 4 -4 4 -10z m332 -8 c-7 -2 -10 -8 -6 -13 3 -5 0 -9 -5 -9 -13 0 -13 3
-5 24 3 9 11 13 17 9 8 -5 7 -8 -1 -11z m-862 -17 c0 -25 -15 -24 -16 1 -1 13
2 21 7 18 5 -3 9 -11 9 -19z m428 3 c2 -10 -2 -18 -8 -18 -7 0 -9 7 -6 16 4
12 2 15 -9 11 -8 -4 -17 -2 -19 2 -3 5 4 8 17 7 12 -1 23 -9 25 -18z m295 7
c-3 -9 -8 -14 -10 -11 -3 3 -2 9 2 15 9 16 15 13 8 -4z m1027 0 c0 -8 -2 -15
-4 -15 -2 0 -6 7 -10 15 -3 8 -1 15 4 15 6 0 10 -7 10 -15z m190 -29 c0 -3 -7
-3 -15 0 -8 4 -15 13 -15 21 0 12 2 12 15 -1 8 -8 15 -17 15 -20z m60 24 c0
-5 -5 -10 -11 -10 -5 0 -7 5 -4 10 3 6 8 10 11 10 2 0 4 -4 4 -10z m-1739 -22
c-11 -11 -18 -25 -15 -30 8 -13 -6 -9 -22 6 -17 18 -18 27 -1 24 6 -2 11 2 10
7 -1 6 9 12 23 13 l25 2 -20 -22z m246 0 c-3 -8 -6 -5 -6 6 -1 11 2 17 5 13 3
-3 4 -12 1 -19z m1273 12 c0 -5 -5 -10 -11 -10 -5 0 -7 5 -4 10 3 6 8 10 11
10 2 0 4 -4 4 -10z m900 0 c0 -5 -5 -10 -11 -10 -5 0 -7 5 -4 10 3 6 8 10 11
10 2 0 4 -4 4 -10z m-2303 -32 c-7 -4 -13 -3 -15 2 -6 16 -20 11 -25 -7 -4
-17 -5 -17 -6 0 -1 21 40 40 51 24 4 -7 2 -15 -5 -19z m200 0 c-3 -7 -5 -2 -5
12 0 14 2 19 5 13 2 -7 2 -19 0 -25z m833 22 c0 -5 -2 -10 -4 -10 -3 0 -8 5
-11 10 -3 6 -1 10 4 10 6 0 11 -4 11 -10z m140 0 c0 -5 -5 -10 -11 -10 -5 0
-7 5 -4 10 3 6 8 10 11 10 2 0 4 -4 4 -10z m-1630 -15 c0 -8 -7 -15 -16 -15
-14 0 -14 3 -4 15 7 8 14 15 16 15 2 0 4 -7 4 -15z m38 -10 c-3 -3 -9 2 -12
12 -6 14 -5 15 5 6 7 -7 10 -15 7 -18z m325 10 c-3 -9 -8 -14 -10 -11 -3 3 -2
9 2 15 9 16 15 13 8 -4z m926 -4 c11 -11 21 -16 23 -11 2 5 15 11 30 14 15 2
32 7 37 10 16 10 37 -3 38 -24 1 -11 -3 -22 -8 -26 -6 -4 -6 -10 1 -19 8 -9 6
-14 -6 -19 -22 -9 -37 3 -24 19 6 7 8 20 4 29 -3 9 -1 16 5 16 6 0 11 4 11 10
0 6 -9 5 -24 -1 -19 -9 -23 -17 -21 -45 2 -19 -1 -34 -6 -34 -5 0 -9 7 -9 15
0 8 -5 15 -11 15 -5 0 -7 5 -3 11 4 7 -2 6 -17 -1 -17 -10 -24 -10 -27 -1 -5
14 -23 15 -19 0 3 -18 -20 -21 -27 -4 -3 9 -2 14 3 11 12 -8 22 20 15 39 -9
21 12 19 35 -4z m666 9 c3 -5 1 -10 -4 -10 -6 0 -11 5 -11 10 0 6 2 10 4 10 3
0 8 -4 11 -10z m-1751 -16 c3 -8 2 -12 -4 -9 -6 3 -10 1 -10 -4 0 -6 -7 -11
-15 -11 -9 0 -12 6 -9 15 4 8 10 12 15 9 5 -3 9 0 9 5 0 16 7 13 14 -5z m581
6 c-3 -5 -10 -10 -16 -10 -5 0 -9 5 -9 10 0 6 7 10 16 10 8 0 12 -4 9 -10z
m1145 -6 c0 -2 -7 -4 -15 -4 -8 0 -15 4 -15 10 0 5 7 7 15 4 8 -4 15 -8 15
-10z m-1785 -14 c-10 -11 -22 -17 -27 -14 -12 8 11 34 30 34 13 0 12 -3 -3
-20z m347 8 c-19 -19 -14 -26 13 -20 24 4 25 2 24 -39 l-1 -44 -13 40 c-9 30
-13 34 -14 17 -1 -31 -35 -26 -39 5 -3 23 15 52 33 53 5 0 4 -5 -3 -12z m218
4 c0 -5 -7 -9 -15 -9 -8 0 -15 4 -15 9 0 4 7 8 15 8 8 0 15 -4 15 -8z m300 0
c0 -2 -7 -10 -15 -18 -8 -8 -19 -23 -24 -32 -5 -9 -12 -14 -16 -11 -3 4 1 14
10 23 15 14 15 16 1 16 -9 0 -16 6 -16 13 0 7 13 12 30 12 17 0 30 -1 30 -3z
m440 -2 c0 -5 -5 -10 -11 -10 -5 0 -7 5 -4 10 3 6 8 10 11 10 2 0 4 -4 4 -10z
m55 0 c-3 -5 -10 -10 -16 -10 -5 0 -9 5 -9 10 0 6 7 10 16 10 8 0 12 -4 9 -10z
m30 1 c3 -5 1 -12 -5 -16 -5 -3 -10 1 -10 9 0 18 6 21 15 7z m-5115 -5 c0 -3
-4 -8 -10 -11 -5 -3 -10 -1 -10 4 0 6 5 11 10 11 6 0 10 -2 10 -4z m4214 -11
c-7 -16 -24 -21 -24 -6 0 8 7 13 27 20 1 1 0 -6 -3 -14z m844 -23 c6 -18 7
-30 3 -27 -5 3 -12 -2 -15 -11 -9 -24 -7 -36 6 -28 8 5 9 2 5 -10 -4 -11 -1
-19 11 -23 9 -4 20 -11 24 -17 10 -14 10 -41 1 -32 -5 4 -8 12 -8 17 0 5 -4 8
-10 7 -5 -2 -9 -5 -8 -8 1 -3 -14 -10 -33 -16 -30 -10 -34 -9 -30 3 3 8 6 21
6 29 0 8 7 14 15 14 19 0 19 7 0 26 -11 12 -12 20 -5 35 6 10 15 19 20 19 5 0
7 14 3 33 -7 39 0 34 15 -11z m778 11 c-10 -10 -19 5 -10 18 6 11 8 11 12 0 2
-7 1 -15 -2 -18z m-1698 -8 c-3 -3 -9 2 -12 12 -6 14 -5 15 5 6 7 -7 10 -15 7
-18z m1227 4 c-10 -15 -25 -10 -19 6 4 8 10 12 15 9 5 -3 7 -10 4 -15z m-5985
-29 c162 -22 385 -51 495 -65 110 -14 206 -28 213 -30 9 -3 12 -70 12 -287 0
-156 -4 -288 -8 -295 -5 -8 -60 -7 -222 7 -235 21 -630 58 -725 68 l-60 7 -3
318 c-1 174 -1 317 0 317 2 0 136 -18 298 -40z m4927 25 c4 -4 -2 -5 -15 -2
-15 4 -27 -1 -37 -16 -8 -12 -15 -17 -15 -13 0 30 48 52 67 31z m1153 5 c0 -5
-2 -10 -4 -10 -3 0 -8 5 -11 10 -3 6 -1 10 4 10 6 0 11 -4 11 -10z m332 -12
c-6 -6 -15 -8 -19 -4 -4 4 -1 11 7 16 19 12 27 3 12 -12z m-5778 -20 c-4 -6
-10 -5 -15 3 -14 22 -10 33 6 19 8 -7 12 -17 9 -22z m4616 10 c0 -12 -3 -18
-7 -14 -11 10 -12 36 -2 36 5 0 9 -10 9 -22z m60 2 c0 -11 -4 -20 -8 -20 -4 0
-8 9 -8 20 0 11 4 20 8 20 4 0 8 -9 8 -20z m85 10 c3 -5 -1 -10 -10 -10 -9 0
-13 5 -10 10 3 6 8 10 10 10 2 0 7 -4 10 -10z m1975 -14 c8 -11 10 -17 3 -13
-6 4 -14 1 -16 -5 -3 -7 -6 0 -6 16 -1 16 0 27 2 25 1 -2 9 -13 17 -23z m44 9
c-4 -8 -10 -15 -14 -15 -4 0 -13 7 -20 15 -11 13 -8 15 13 15 19 0 25 -4 21
-15z m-6649 -15 c18 -19 17 -20 -3 -20 -15 0 -22 6 -22 20 0 11 2 20 3 20 2 0
12 -9 22 -20z m4008 4 c-5 -15 -3 -15 20 1 19 12 27 13 27 5 0 -7 7 -10 16 -6
8 3 12 2 9 -4 -3 -6 2 -13 11 -17 10 -4 19 -2 22 5 5 17 19 15 26 -4 3 -9 2
-12 -5 -9 -5 4 -20 0 -32 -8 -25 -16 -47 -12 -47 9 0 9 -4 12 -10 9 -5 -3 -10
-1 -10 4 0 7 -7 7 -20 -1 -11 -7 -20 -20 -20 -29 0 -9 -7 -19 -15 -23 -19 -7
-19 -1 1 29 9 14 13 25 9 25 -4 0 -2 7 5 15 16 19 21 19 13 -1z m1418 -9 c10
7 13 -18 2 -28 -9 -9 -31 35 -24 48 3 6 7 2 9 -8 2 -9 8 -15 13 -12z m-1167
-6 c-6 -11 -24 -2 -24 11 0 5 7 7 15 4 8 -4 12 -10 9 -15z m41 11 c3 -5 1 -10
-4 -10 -6 0 -11 5 -11 10 0 6 2 10 4 10 3 0 8 -4 11 -10z m1232 -27 c-3 -10
-5 -4 -5 12 0 17 2 24 5 18 2 -7 2 -21 0 -30z m-1097 17 c0 -5 -7 -10 -16 -10
-8 0 -12 5 -9 10 3 6 10 10 16 10 5 0 9 -4 9 -10z m183 -5 c-3 -9 -8 -14 -10
-11 -3 3 -2 9 2 15 9 16 15 13 8 -4z m142 5 c3 -5 1 -10 -4 -10 -6 0 -11 5
-11 10 0 6 2 10 4 10 3 0 8 -4 11 -10z m235 0 c0 -5 -2 -10 -4 -10 -3 0 -8 5
-11 10 -3 6 -1 10 4 10 6 0 11 -4 11 -10z m390 -16 c0 -14 -3 -14 -15 -4 -8 7
-15 14 -15 16 0 2 7 4 15 4 8 0 15 -7 15 -16z m-1180 -10 c0 -8 -5 -12 -10 -9
-6 4 -8 11 -5 16 9 14 15 11 15 -7z m350 -18 c0 -3 -7 -3 -15 0 -8 4 -15 13
-15 21 0 12 2 12 15 -1 8 -8 15 -17 15 -20z m125 24 c3 -5 1 -10 -4 -10 -6 0
-11 5 -11 10 0 6 2 10 4 10 3 0 8 -4 11 -10z m371 -27 c-11 -11 -17 4 -9 23 7
18 8 18 11 1 2 -10 1 -21 -2 -24z m294 16 c0 -11 -4 -18 -10 -14 -5 3 -7 12
-3 20 7 21 13 19 13 -6z m-100 -1 c0 -4 -7 -8 -15 -8 -8 0 -15 4 -15 8 0 5 7
9 15 9 8 0 15 -4 15 -9z m220 -3 c0 -9 -6 -12 -15 -9 -8 4 -12 10 -9 15 8 14
24 10 24 -6z m28 -21 c-14 -14 -15 -14 -10 11 3 19 8 23 15 16 8 -8 7 -16 -5
-27z m1136 7 c-2 -3 -12 3 -22 13 -16 17 -16 18 5 5 12 -7 20 -15 17 -18z
m-1904 15 c0 -3 -4 -8 -10 -11 -5 -3 -10 -1 -10 4 0 6 5 11 10 11 6 0 10 -2
10 -4z m300 0 c0 -3 -4 -8 -10 -11 -5 -3 -10 -1 -10 4 0 6 5 11 10 11 6 0 10
-2 10 -4z m-912 -32 c3 -40 -5 -44 -50 -28 -52 18 -59 18 -51 -3 4 -11 3 -14
-5 -9 -28 17 -11 41 26 37 6 -1 12 3 12 9 0 5 4 10 10 10 5 0 7 -7 4 -15 -5
-11 1 -15 21 -15 15 0 24 4 20 10 -5 8 1 30 8 30 2 0 4 -12 5 -26z m72 19 c-1
-18 -19 -35 -29 -28 -9 5 -7 11 6 21 21 16 23 16 23 7z m500 -3 c0 -5 -7 -10
-16 -10 -8 0 -12 5 -9 10 3 6 10 10 16 10 5 0 9 -4 9 -10z m849 -32 c0 -35 -2
-39 -9 -21 -8 19 -3 63 6 63 2 0 4 -19 3 -42z m-5159 22 c0 -5 -10 -10 -22 -9
-22 0 -22 1 -3 9 11 5 21 9 23 9 1 1 2 -3 2 -9z m5296 -17 c-10 -10 -19 5 -10
18 6 11 8 11 12 0 2 -7 1 -15 -2 -18z m850 -10 c-11 -11 -17 4 -9 23 7 18 8
18 11 1 2 -10 1 -21 -2 -24z m-1936 23 c0 -3 -4 -8 -10 -11 -5 -3 -10 -1 -10
4 0 6 5 11 10 11 6 0 10 -2 10 -4z m117 -18 c-3 -8 -6 -5 -6 6 -1 11 2 17 5
13 3 -3 4 -12 1 -19z m933 12 c0 -5 -5 -10 -11 -10 -5 0 -7 5 -4 10 3 6 8 10
11 10 2 0 4 -4 4 -10z m-570 -20 c-6 -11 -12 -20 -14 -20 -3 0 -1 23 3 38 1 1
6 2 11 2 7 0 7 -6 0 -20z m1491 -4 c5 3 8 0 7 -8 -2 -7 3 -12 10 -10 8 1 11
-2 7 -8 -3 -5 -2 -10 4 -10 5 0 11 6 14 13 2 6 8 8 13 4 11 -10 -17 -28 -33
-22 -11 4 -18 -14 -14 -37 0 -5 -5 -7 -11 -5 -9 1 -12 -8 -10 -25 1 -16 -1
-28 -6 -28 -5 0 -9 6 -9 13 0 6 -4 20 -8 30 -6 14 -2 20 14 24 22 5 29 37 11
48 -5 3 -9 16 -9 28 1 17 2 18 6 4 2 -9 9 -15 14 -11z m209 4 c0 -5 -2 -10 -4
-10 -3 0 -8 5 -11 10 -3 6 -1 10 4 10 6 0 11 -4 11 -10z m-2863 -22 c-3 -8 -6
-5 -6 6 -1 11 2 17 5 13 3 -3 4 -12 1 -19z m649 -4 c-4 -9 -9 -15 -11 -12 -3
3 -3 13 1 22 4 9 9 15 11 12 3 -3 3 -13 -1 -22z m874 -37 c0 -39 -1 -40 -17
-25 -14 15 -14 19 -2 34 9 11 9 15 2 10 -9 -5 -12 0 -11 18 4 42 28 9 28 -37z
m250 44 c0 -4 -10 -7 -22 -5 -31 3 -30 3 -24 13 7 10 46 3 46 -8z m-1087 3 c9
-3 13 -13 10 -25 -3 -10 -9 -16 -14 -14 -4 3 -6 13 -3 23 5 15 5 15 -6 -1 -6
-9 -8 -22 -5 -27 3 -6 1 -10 -4 -10 -12 0 -14 20 -5 44 7 18 7 18 27 10z
m1027 -34 c-4 -3 -10 -12 -13 -20 -3 -8 -6 0 -6 18 -1 28 1 31 13 20 8 -7 10
-15 6 -18z m915 20 c3 -6 -1 -7 -9 -4 -18 7 -21 14 -7 14 6 0 13 -4 16 -10z
m-1146 -29 c-15 -5 -22 6 -14 19 6 9 10 9 16 -1 5 -8 4 -15 -2 -18z m1304 -2
c-4 -14 -8 -17 -13 -9 -4 7 -13 9 -19 6 -6 -4 -11 -2 -11 3 0 6 7 11 16 11 8
0 12 4 9 10 -3 5 0 7 8 4 9 -3 13 -13 10 -25z m47 16 c0 -12 -19 -12 -23 0 -4
9 -1 12 9 8 7 -3 14 -7 14 -8z m-3750 -5 c0 -5 -2 -10 -4 -10 -3 0 -8 5 -11
10 -3 6 -1 10 4 10 6 0 11 -4 11 -10z m45 1 c3 -5 1 -12 -5 -16 -5 -3 -10 1
-10 9 0 18 6 21 15 7z m55 5 c0 -3 -4 -8 -10 -11 -5 -3 -10 -1 -10 4 0 6 5 11
10 11 6 0 10 -2 10 -4z m2036 -22 c-3 -8 1 -14 8 -14 9 0 12 7 9 20 -4 16 -2
19 11 14 11 -4 14 -13 10 -30 -4 -16 -2 -24 6 -24 9 0 10 -3 1 -14 -6 -7 -12
-25 -13 -39 -1 -14 -6 -23 -11 -20 -5 3 -6 12 -3 20 3 8 -6 25 -21 39 -14 13
-23 27 -20 30 3 4 2 15 -3 24 -8 15 -6 17 11 13 12 -3 18 -11 15 -19z m414 10
c0 -8 -4 -12 -10 -9 -5 3 -10 10 -10 16 0 5 5 9 10 9 6 0 10 -7 10 -16z m134
-9 c-7 -16 -34 -28 -34 -15 0 6 5 10 10 10 6 0 10 7 10 16 0 8 4 13 10 9 5 -3
7 -12 4 -20z m126 4 c0 -5 -7 -9 -15 -9 -8 0 -15 -5 -15 -11 0 -5 -4 -8 -10
-4 -5 3 -2 14 7 25 16 19 33 18 33 -1z m-1509 -1 c0 -10 2 -10 6 0 7 17 27 15
45 -5 20 -23 33 -103 17 -103 -7 0 -9 -9 -5 -25 4 -14 2 -25 -3 -25 -6 0 -8
-7 -5 -15 8 -20 -20 -62 -45 -70 -23 -7 -64 12 -56 26 4 5 2 9 -3 9 -5 0 -10
21 -10 46 -1 25 -4 54 -7 64 -7 23 14 38 26 19 7 -11 9 -11 9 3 0 9 -5 18 -12
20 -23 8 4 30 28 24 28 -7 30 -1 9 20 -9 9 -15 11 -15 4 0 -6 -5 -8 -10 -5 -6
4 -8 11 -5 16 9 13 35 11 36 -3z m2089 3 c0 -6 -4 -12 -8 -15 -5 -3 -9 1 -9 9
0 8 4 15 9 15 4 0 8 -4 8 -9z m-1590 -36 c11 -13 10 -14 -4 -9 -9 3 -16 10
-16 15 0 13 6 11 20 -6z m1391 6 c-8 -5 -20 -7 -28 -4 -21 8 -15 13 15 13 20
0 23 -3 13 -9z m-101 -11 c0 -5 -7 -7 -15 -4 -8 4 -15 8 -15 10 0 2 7 4 15 4
8 0 15 -4 15 -10z m-671 -19 c10 -17 8 -18 -13 -8 -14 7 -22 15 -20 19 9 14
23 9 33 -11z m1291 15 c0 -2 -7 -7 -16 -10 -8 -3 -12 -2 -9 4 6 10 25 14 25 6z
m-1929 -19 c-1 -12 -15 -9 -19 4 -3 6 1 10 8 8 6 -3 11 -8 11 -12z m346 -13
c12 -11 13 -18 4 -27 -8 -8 -11 -7 -11 6 0 9 -7 17 -15 17 -8 0 -15 5 -15 10
0 15 19 12 37 -6z m393 12 c0 -3 -4 -8 -10 -11 -5 -3 -10 -1 -10 4 0 6 5 11
10 11 6 0 10 -2 10 -4z m520 -41 c0 -17 -2 -17 -14 5 -7 14 -11 29 -8 34 6 12
22 -15 22 -39z m24 29 c3 -8 2 -12 -4 -9 -6 3 -10 10 -10 16 0 14 7 11 14 -7z
m-1327 -10 c-12 -13 18 -32 36 -23 11 6 17 6 17 0 0 -6 -8 -15 -17 -20 -17
-10 -17 -10 0 -11 9 0 17 -8 17 -17 0 -13 -9 -18 -33 -20 -33 -1 -34 -1 -36
48 -1 33 2 49 10 49 7 0 10 -3 6 -6z m-254 -15 c-6 -6 -9 -18 -6 -25 3 -8 1
-14 -5 -14 -5 0 -12 9 -15 19 -4 18 -1 21 33 30 2 0 -1 -4 -7 -10z m1525 -30
c-3 -8 -7 -3 -11 10 -4 17 -3 21 5 13 5 -5 8 -16 6 -23z m72 11 c0 -5 -4 -10
-10 -10 -5 0 -10 5 -10 10 0 6 5 10 10 10 6 0 10 -4 10 -10z m690 -46 c0 -8
-4 -14 -10 -14 -5 0 -10 9 -10 21 0 11 5 17 10 14 6 -3 10 -13 10 -21z m-2812
-42 c3 -47 1 -52 -17 -52 -23 0 -25 4 -12 28 6 12 4 21 -6 31 -13 12 -14 11
-8 -8 4 -12 2 -21 -4 -21 -15 0 -14 53 1 68 26 26 43 9 46 -46z m2072 48 c0
-5 -5 -10 -11 -10 -5 0 -7 5 -4 10 3 6 8 10 11 10 2 0 4 -4 4 -10z m-1566 -41
c-3 -5 -10 -7 -15 -3 -5 3 -7 10 -3 15 3 5 10 7 15 3 5 -3 7 -10 3 -15z m541
11 c3 -5 2 -10 -4 -10 -5 0 -13 5 -16 10 -3 6 -2 10 4 10 5 0 13 -4 16 -10z
m1760 -20 c3 -5 1 -10 -4 -10 -6 0 -11 5 -11 10 0 6 2 10 4 10 3 0 8 -4 11
-10z m-6365 -1880 c0 -5 -4 -10 -10 -10 -5 0 -10 5 -10 10 0 6 5 10 10 10 6 0
10 -4 10 -10z m219 -4 c10 -12 -1 -20 -58 -48 -38 -18 -65 -27 -59 -20 6 7 27
20 46 28 23 9 32 19 29 28 -5 13 4 23 24 25 4 1 12 -5 18 -13z m-59 -16 c0 -5
-4 -10 -10 -10 -5 0 -10 5 -10 10 0 6 5 10 10 10 6 0 10 -4 10 -10z m-55 -10
c-3 -5 -10 -10 -16 -10 -5 0 -9 5 -9 10 0 6 7 10 16 10 8 0 12 -4 9 -10z
m-340 -109 c-3 -6 -11 -11 -17 -11 -6 0 -6 6 2 15 14 17 26 13 15 -4z m88 -44
c-8 -13 -33 14 -33 37 0 20 1 20 19 -4 11 -13 17 -28 14 -33z m484 47 c-3 -3
-12 -4 -19 -1 -8 3 -5 6 6 6 11 1 17 -2 13 -5z m-437 -24 c0 -5 -4 -10 -10
-10 -5 0 -10 5 -10 10 0 6 5 10 10 10 6 0 10 -4 10 -10z m354 -15 c-4 -8 -10
-15 -15 -15 -5 0 -9 -7 -9 -15 0 -8 -4 -15 -10 -15 -16 0 -12 12 12 37 25 27
29 29 22 8z m-473 -46 c-6 -16 -10 -18 -10 -7 -1 22 12 55 16 42 2 -6 -1 -22
-6 -35z m149 30 c0 -5 5 -7 12 -3 7 4 8 3 4 -4 -4 -6 -13 -9 -21 -5 -17 6 -20
23 -5 23 6 0 10 -5 10 -11z m-36 -18 c10 -11 16 -26 13 -33 -4 -8 -8 -5 -12
10 -4 12 -14 22 -21 22 -8 0 -14 5 -14 10 0 16 15 12 34 -9z m-69 -1 c3 -5 1
-10 -4 -10 -6 0 -11 5 -11 10 0 6 2 10 4 10 3 0 8 -4 11 -10z m328 -24 c-15
-13 -30 -23 -32 -20 -5 4 41 43 52 44 4 0 -5 -11 -20 -24z m-275 -42 c-4 -3
-15 3 -26 14 -11 11 -18 23 -14 26 3 4 15 -2 26 -13 11 -11 17 -23 14 -27z
m342 26 c0 -5 -5 -10 -11 -10 -5 0 -7 5 -4 10 3 6 8 10 11 10 2 0 4 -4 4 -10z
m37 -6 c-3 -3 -12 -4 -19 -1 -8 3 -5 6 6 6 11 1 17 -2 13 -5z m-182 -14 c3 -5
1 -10 -4 -10 -6 0 -11 5 -11 10 0 6 2 10 4 10 3 0 8 -4 11 -10z m141 -37 c-10
-10 -19 5 -10 18 6 11 8 11 12 0 2 -7 1 -15 -2 -18z m-1 -60 c-12 -61 -16 -73
-25 -73 -6 0 -10 7 -10 15 0 8 5 15 11 15 7 0 9 9 5 24 -5 22 0 36 15 36 4 0
6 -8 4 -17z m-55 -28 c0 -8 -4 -15 -10 -15 -5 0 -10 7 -10 15 0 8 5 15 10 15
6 0 10 -7 10 -15z m133 -12 c8 -8 -56 -53 -75 -53 -7 0 2 14 20 30 33 31 44
35 55 23z m147 -3 c8 -5 11 -12 7 -16 -4 -4 -15 0 -24 9 -18 18 -8 23 17 7z
m-323 -45 c-16 -17 -17 -14 -10 14 4 15 8 19 13 10 5 -6 3 -18 -3 -24z m40 -2
c-3 -10 -5 -4 -5 12 0 17 2 24 5 18 2 -7 2 -21 0 -30z m-287 -97 c0 -3 -4 -8
-10 -11 -5 -3 -10 -1 -10 4 0 6 5 11 10 11 6 0 10 -2 10 -4z m-1230 -16 c0 -6
-11 -10 -25 -10 -14 0 -25 4 -25 8 0 4 11 9 25 10 14 1 25 -3 25 -8z m103 3
c-13 -2 -33 -2 -45 0 -13 2 -3 4 22 4 25 0 35 -2 23 -4z m954 -60 c8 -19 1
-24 -41 -28 l-36 -3 0 44 0 43 36 -21 c20 -12 38 -27 41 -35z m-1951 18 c-3
-5 -36 -12 -73 -15 -38 -4 -80 -9 -95 -12 -16 -3 -28 -1 -28 4 0 6 42 14 93
20 50 5 96 10 100 11 5 0 6 -3 3 -8z m-206 -21 c0 -5 -10 -10 -22 -10 -19 0
-20 2 -8 10 19 13 30 13 30 0z m-157 -7 c-7 -2 -19 -2 -25 0 -7 3 -2 5 12 5
14 0 19 -2 13 -5z m50 0 c-7 -2 -19 -2 -25 0 -7 3 -2 5 12 5 14 0 19 -2 13 -5z
m2422 -2 c3 -5 1 -12 -5 -16 -5 -3 -10 1 -10 9 0 18 6 21 15 7z m-95 -64 c-10
-9 -11 -9 -6 0 3 6 2 13 -3 15 -4 1 -12 14 -16 28 -7 25 -7 25 15 -3 18 -23
20 -31 10 -40z m5 -23 c14 4 25 -2 34 -16 12 -19 11 -20 -8 -15 -12 3 -19 1
-16 -3 7 -11 -12 -22 -46 -26 -15 -2 -31 -4 -36 -5 -23 -4 -33 3 -33 24 0 15
-9 28 -22 35 -18 8 -19 11 -5 11 9 1 17 4 17 7 0 4 -8 13 -17 20 -17 13 -17
13 0 14 9 0 25 -9 34 -20 10 -11 22 -20 27 -20 6 0 5 5 -2 12 -28 28 -9 35 20
8 22 -21 39 -29 53 -26z m65 38 c0 -13 -12 -22 -22 -16 -10 6 -1 24 13 24 5 0
9 -4 9 -8z m23 -175 c4 3 7 1 7 -5 0 -12 -15 -17 -75 -26 -38 -6 -39 -6 -20 9
11 9 28 14 38 11 9 -2 17 0 17 5 0 5 -4 9 -10 9 -5 0 -10 5 -10 10 0 6 10 4
23 -5 13 -8 27 -12 30 -8z m-133 -27 c0 -5 -9 -10 -21 -10 -11 0 -17 5 -14 10
3 6 13 10 21 10 8 0 14 -4 14 -10z m154 -67 c6 -15 8 -15 16 -3 7 10 10 -1 10
-37 0 -44 -4 -54 -22 -65 l-23 -12 25 -7 25 -7 -27 -1 c-28 -1 -32 -8 -43 -72
-10 -54 6 -75 61 -84 26 -3 53 -9 61 -12 11 -4 13 7 12 56 -1 34 1 64 4 68 4
3 7 -3 7 -15 0 -12 5 -22 11 -22 5 0 8 -4 4 -9 -3 -5 0 -13 6 -17 8 -4 7 -9
-2 -15 -8 -4 -14 -17 -15 -28 -1 -16 10 -22 70 -35 39 -8 89 -18 111 -22 116
-19 87 -73 -40 -74 -22 -1 -69 -7 -105 -15 -36 -8 -85 -15 -110 -15 -64 -1
-84 -16 -33 -25 l40 -6 -1 -249 c0 -137 -3 -251 -6 -253 -9 -9 -515 -11 -513
-2 1 4 35 22 75 39 50 22 72 37 69 47 -11 35 -12 102 -2 112 7 7 7 14 0 24 -7
7 -7 13 -2 13 5 0 16 -9 26 -20 14 -16 21 -18 36 -10 11 5 29 10 41 10 13 0
19 4 14 12 -5 8 0 9 14 6 15 -4 22 -2 22 7 0 8 8 19 18 24 15 9 14 10 -8 11
-28 0 -55 25 -56 53 0 9 -1 53 -2 96 -2 75 -3 79 -23 74 -20 -5 -21 -11 -17
-105 2 -78 0 -97 -10 -93 -7 3 -10 0 -7 -5 9 -14 -8 -12 -24 3 -11 10 -13 9
-8 -5 3 -10 2 -20 -2 -23 -14 -8 -16 12 -16 137 0 107 -2 118 -18 118 -14 0
-17 -5 -12 -20 4 -11 2 -20 -4 -20 -7 0 -11 -33 -11 -90 0 -49 -3 -90 -6 -90
-4 0 -17 11 -30 25 -16 18 -33 25 -59 25 -25 0 -34 4 -29 12 5 8 -2 9 -23 5
-17 -3 -34 -2 -39 2 -19 16 -94 31 -158 31 -57 0 -184 -15 -303 -35 -26 -5
-33 -2 -33 10 0 9 -9 15 -25 15 -16 0 -25 -6 -25 -15 0 -8 -6 -15 -13 -15 -11
0 -75 -7 -224 -25 l-43 -5 0 49 0 48 -47 14 c-26 7 -62 13 -80 13 -18 1 -33 4
-33 8 0 7 -29 17 -132 43 -63 16 -68 19 -68 44 l0 27 148 12 c81 7 203 19 272
27 69 8 217 24 330 35 113 12 257 28 320 35 63 8 195 22 293 31 l177 18 0 117
0 118 33 5 c42 7 72 10 128 14 37 2 48 -1 53 -15z m63 -45 c-2 -13 -4 -5 -4
17 -1 22 1 32 4 23 2 -10 2 -28 0 -40z m-752 -3 c33 -4 70 -9 83 -12 23 -5 31
-29 10 -31 -27 -2 -64 -10 -81 -17 -9 -4 -28 -4 -42 -1 -15 4 -25 2 -25 -4 0
-6 -4 -9 -9 -6 -4 3 -22 1 -39 -3 -20 -6 -34 -5 -41 2 -8 8 -11 7 -11 -2 0
-10 -12 -12 -45 -9 -24 3 -47 3 -50 0 -3 -3 -20 -7 -37 -8 -18 -2 -59 -6 -90
-9 -31 -3 -85 -8 -119 -10 -70 -6 -189 -32 -203 -46 -17 -16 -44 -10 -51 11
-4 11 -11 18 -16 15 -5 -4 -9 -1 -9 4 0 6 -10 11 -21 11 -16 0 -20 5 -16 20 3
10 2 19 -2 18 -22 -2 -34 3 -25 12 6 6 91 17 190 25 249 21 274 24 286 31 7 4
8 2 4 -5 -6 -9 4 -10 38 -6 104 15 122 17 154 19 18 2 35 6 39 10 4 3 20 4 37
2 17 -3 58 -8 91 -11z m-1090 -86 c33 -6 71 -12 85 -14 90 -12 210 -41 210
-51 0 -3 -39 -3 -86 0 -47 2 -97 1 -110 -4 -15 -6 -24 -6 -24 0 0 6 -10 6 -25
0 -15 -6 -44 -8 -65 -7 -22 2 -41 -1 -43 -6 -2 -7 -60 -14 -167 -17 -19 -1
-52 0 -72 3 -21 3 -38 2 -38 -1 0 -4 -12 -8 -27 -9 -16 -1 -44 -5 -63 -8 -19
-3 -67 -7 -107 -8 -40 -2 -75 -6 -79 -10 -4 -4 -12 -7 -18 -7 -6 0 -4 5 4 10
8 5 10 10 4 10 -6 0 -14 -3 -18 -7 -11 -11 -35 -12 -42 -2 -3 5 -10 6 -16 3
-6 -4 -27 -8 -47 -9 -61 -4 -112 65 -59 79 13 3 27 1 32 -4 5 -5 17 -5 29 1
10 6 78 13 150 15 73 2 170 7 217 11 47 3 89 6 93 5 4 -1 18 3 30 10 12 6 48
12 80 14 32 1 61 5 65 8 8 9 40 7 107 -5z m1842 -5 c-3 -3 -12 -4 -19 -1 -8 3
-5 6 6 6 11 1 17 -2 13 -5z m-1870 -308 c28 -15 27 -15 -42 -16 -38 0 -108 -4
-155 -9 -47 -5 -119 -12 -161 -16 -42 -3 -89 -8 -105 -11 -44 -8 -181 -22
-354 -35 -147 -12 -224 -8 -204 10 5 5 155 23 334 41 179 18 377 39 440 46
134 15 207 12 247 -10z m357 -113 c11 -37 3 -93 -13 -93 -9 -1 -67 -7 -129
-13 -62 -7 -117 -10 -123 -6 -6 3 -9 26 -7 50 3 41 5 44 42 51 21 5 75 12 120
17 45 5 86 9 93 10 6 0 14 -7 17 -16z m1062 -155 c-1 -33 -6 -35 -36 -17 -12
6 -12 8 -1 9 10 0 11 3 2 14 -9 11 -9 15 1 19 28 11 35 6 34 -25z m1 -107 c3
-14 11 -30 17 -34 7 -6 6 -7 -4 -4 -8 2 -63 -20 -121 -49 -58 -30 -109 -54
-113 -54 -4 0 -19 -9 -32 -19 -22 -18 -43 -20 -201 -21 -97 0 -187 -3 -200 -6
-24 -6 -27 2 -24 51 4 50 11 67 25 55 9 -7 15 -7 18 -1 5 15 60 22 75 9 10 -8
13 -7 13 2 0 7 7 10 16 6 8 -3 12 -2 9 4 -3 6 6 11 22 11 15 1 35 3 43 4 8 1
25 3 38 4 16 1 21 5 16 14 -5 7 -1 7 10 -2 15 -13 19 -13 27 0 7 12 9 12 9 -1
0 -10 3 -11 8 -4 9 14 72 24 72 11 0 -5 8 -6 18 -2 9 4 37 13 62 20 25 7 54
16 64 21 14 5 17 4 11 -5 -5 -9 2 -8 21 2 16 9 44 15 62 15 26 -1 34 -6 39
-27z m-718 -135 c10 -30 10 -40 1 -46 -14 -9 -247 -12 -272 -4 -11 3 -18 15
-18 30 0 21 5 24 38 25 46 2 47 2 102 19 25 7 55 12 67 11 12 -1 30 2 40 8 21
12 25 8 42 -43z m236 -114 c-6 -5 -30 -17 -55 -26 -25 -10 -60 -25 -77 -33
-45 -21 -63 -12 -63 32 l0 35 102 0 c57 0 98 -4 93 -8z m-981 -401 c3 -5 -1
-11 -9 -14 -9 -4 -12 -1 -8 9 6 16 10 17 17 5z m-4 -89 c19 -15 24 -33 31
-113 20 -214 12 -324 -22 -303 -5 3 -9 -2 -9 -10 0 -20 -19 -31 -32 -18 -8 8
-7 16 3 29 12 16 12 17 -1 6 -12 -9 -24 -7 -57 8 -23 10 -45 23 -48 29 -3 5
-13 6 -23 3 -13 -4 -13 -2 3 10 20 16 19 16 -7 17 -20 0 -26 4 -22 14 4 11 -6
18 -35 26 -23 6 -41 15 -41 19 0 5 -9 11 -21 14 -12 3 -18 10 -15 15 3 6 -2 8
-13 5 -13 -3 -25 3 -37 22 -9 14 -23 24 -30 21 -7 -3 -15 2 -18 10 -3 8 -14
14 -25 14 -25 0 -38 20 -14 21 14 0 13 2 -5 10 -13 5 -27 7 -31 5 -4 -3 -14 4
-21 15 -8 10 -21 19 -30 19 -8 1 -26 7 -38 14 -22 12 -19 14 50 30 151 36 404
84 444 85 27 1 50 -6 64 -17z m-52 -447 c-3 -3 -9 2 -12 12 -6 14 -5 15 5 6 7
-7 10 -15 7 -18z m67 -11 c-9 -9 -18 -14 -21 -11 -9 9 6 27 22 27 13 0 13 -2
-1 -16z m-1567 -144 c42 -27 88 -59 102 -70 14 -11 29 -20 33 -20 5 0 5 -5 1
-12 -4 -6 -3 -8 4 -4 6 3 18 -2 28 -11 10 -10 20 -18 23 -18 3 -1 22 -11 41
-23 l35 -23 -35 6 c-34 6 -217 68 -292 100 -37 15 -38 16 -38 70 0 32 4 55 11
55 5 0 45 -22 87 -50z m1539 -282 c-3 -7 -5 -2 -5 12 0 14 2 19 5 13 2 -7 2
-19 0 -25z m-877 2 c0 -5 -2 -10 -4 -10 -3 0 -8 5 -11 10 -3 6 -1 10 4 10 6 0
11 -4 11 -10z m246 -65 c-16 -17 -36 -20 -36 -6 0 8 17 16 43 20 5 0 2 -6 -7
-14z m434 5 c0 -5 -2 -10 -4 -10 -3 0 -8 5 -11 10 -3 6 -1 10 4 10 6 0 11 -4
11 -10z m-212 -35 c-1 -14 -8 -25 -15 -25 -16 0 -16 5 -1 30 16 26 18 25 16
-5z m232 -5 c0 -5 -10 -10 -22 -9 -22 0 -22 1 -3 9 11 5 21 9 23 9 1 1 2 -3 2
-9z m94 -26 c5 -14 4 -15 -9 -4 -17 14 -19 20 -6 20 5 0 12 -7 15 -16z m-74
-4 c0 -5 -7 -10 -15 -10 -8 0 -15 5 -15 10 0 6 7 10 15 10 8 0 15 -4 15 -10z
m30 -15 c0 -8 -4 -15 -10 -15 -5 0 -7 7 -4 15 4 8 8 15 10 15 2 0 4 -7 4 -15z"/>
<path d="M8350 7000 c0 -5 5 -10 10 -10 6 0 10 5 10 10 0 6 -4 10 -10 10 -5 0
-10 -4 -10 -10z"/>
<path d="M7520 7070 c0 -5 5 -10 11 -10 5 0 7 5 4 10 -3 6 -8 10 -11 10 -2 0
-4 -4 -4 -10z"/>
<path d="M7743 6805 c0 -25 3 -45 8 -45 5 0 9 7 9 15 0 8 8 15 18 16 12 0 11
3 -7 10 -14 6 -21 15 -17 24 3 8 2 17 -3 19 -4 3 -8 -15 -8 -39z"/>
<path d="M7775 6830 c-3 -5 1 -10 9 -10 9 0 16 5 16 10 0 6 -4 10 -9 10 -6 0
-13 -4 -16 -10z"/>
<path d="M3557 4097 c-3 -8 1 -14 9 -14 8 0 14 6 14 14 0 7 -4 13 -9 13 -5 0
-11 -6 -14 -13z"/>
<path d="M3651 3704 c0 -11 3 -14 6 -6 3 7 2 16 -1 19 -3 4 -6 -2 -5 -13z"/>
<path d="M3530 3570 c-9 -6 -10 -10 -3 -10 6 0 15 5 18 10 8 12 4 12 -15 0z"/>
<path d="M3560 3566 c0 -14 -18 -16 -119 -16 -96 0 -120 -3 -125 -15 -5 -13
13 -15 127 -15 73 0 142 3 155 6 29 8 23 30 -8 26 -13 -2 -20 1 -16 6 4 6 2
13 -4 17 -5 3 -10 -1 -10 -9z"/>
<path d="M3488 3563 c7 -3 16 -2 19 1 4 3 -2 6 -13 5 -11 0 -14 -3 -6 -6z"/>
<path d="M2850 3514 c-14 -2 -63 -9 -110 -15 -47 -6 -89 -14 -95 -18 -5 -3 17
-11 50 -17 l60 -12 -74 -1 c-41 -1 -72 -3 -70 -5 2 -2 60 -7 129 -10 69 -3
112 -2 95 3 -19 4 9 7 76 7 85 -1 108 2 122 15 15 16 14 17 -13 21 -16 3 -35
1 -41 -2 -15 -10 -159 -12 -159 -3 0 4 12 8 28 9 89 2 132 9 129 18 -4 11 -81
17 -127 10z m88 -61 c-10 -2 -28 -2 -40 0 -13 2 -5 4 17 4 22 1 32 -1 23 -4z"/>
<path d="M9125 10220 c-3 -5 -1 -10 4 -10 6 0 11 5 11 10 0 6 -2 10 -4 10 -3
0 -8 -4 -11 -10z"/>
<path d="M1694 8375 c-10 -25 2 -40 37 -51 50 -14 104 -4 104 21 0 26 -39 45
-93 45 -29 0 -44 -5 -48 -15z"/>
<path d="M3367 8028 c-11 -30 13 -48 64 -48 56 0 77 22 44 46 -24 18 -102 18
-108 2z"/>
<path d="M6739 7167 c9 -11 10 -17 2 -17 -15 0 -14 -13 5 -36 8 -10 13 -13 9
-6 -3 6 -1 12 4 12 20 0 11 35 -11 49 -21 13 -22 13 -9 -2z"/>
<path d="M6955 7122 c-6 -4 -8 -23 -5 -42 l6 -35 5 43 c2 23 4 42 4 42 0 0 -5
-4 -10 -8z"/>
<path d="M7166 7096 c3 -20 1 -24 -14 -21 -12 2 -18 -3 -19 -16 -1 -10 2 -19
8 -19 5 0 8 6 7 13 -2 8 9 11 31 10 23 -1 30 2 20 8 -8 4 -14 16 -14 25 0 10
-5 19 -12 21 -8 3 -10 -4 -7 -21z"/>
<path d="M6975 7100 c3 -5 8 -10 11 -10 2 0 4 5 4 10 0 6 -5 10 -11 10 -5 0
-7 -4 -4 -10z"/>
<path d="M7099 7108 c0 -2 -3 -14 -5 -28 -4 -24 -4 -24 10 -5 18 24 20 35 6
35 -5 0 -10 -1 -11 -2z"/>
<path d="M7223 7100 c-31 -13 -29 -20 5 -16 15 2 22 2 16 -1 -15 -5 -26 -43
-13 -43 5 0 9 6 9 13 1 6 7 1 14 -13 8 -14 12 -29 8 -35 -3 -5 1 -4 10 2 13
12 15 25 10 86 -2 18 -24 21 -59 7z m57 -50 c0 -5 -2 -10 -4 -10 -3 0 -8 5
-11 10 -3 6 -1 10 4 10 6 0 11 -4 11 -10z"/>
<path d="M6875 7090 c-3 -5 -1 -10 4 -10 6 0 11 5 11 10 0 6 -2 10 -4 10 -3 0
-8 -4 -11 -10z"/>
<path d="M6680 7084 c0 -23 24 -33 40 -16 13 14 12 15 -5 9 -11 -5 -22 -3 -27
5 -5 8 -8 9 -8 2z"/>
<path d="M6750 7075 c-7 -9 -11 -18 -8 -20 3 -3 11 1 18 10 7 9 11 18 8 20 -3
3 -11 -1 -18 -10z"/>
<path d="M6919 7088 c-4 -19 -5 -68 -1 -63 7 6 12 65 6 65 -2 0 -4 -1 -5 -2z"/>
<path d="M7043 7059 c-8 -20 -16 -28 -24 -23 -8 4 -9 3 -5 -4 4 -7 11 -12 15
-12 10 0 36 58 29 65 -2 2 -9 -10 -15 -26z"/>
<path d="M6855 7059 c-4 -6 -5 -12 -2 -15 2 -3 7 2 10 11 7 17 1 20 -8 4z"/>
<path d="M7323 7043 c-7 -2 -13 -11 -13 -19 0 -7 6 -11 13 -8 8 3 14 11 14 19
0 8 -1 15 -1 14 -1 0 -7 -3 -13 -6z"/>
<path d="M6696 7027 c3 -10 9 -15 12 -12 3 3 0 11 -7 18 -10 9 -11 8 -5 -6z"/>
<path d="M6970 7036 c0 -2 7 -6 15 -10 8 -3 15 -1 15 4 0 6 -7 10 -15 10 -8 0
-15 -2 -15 -4z"/>
<path d="M7172 7019 c13 -21 55 -38 42 -18 -3 5 -10 7 -15 4 -5 -4 -9 0 -9 8
0 8 -7 18 -16 21 -15 6 -15 4 -2 -15z"/>
<path d="M6836 7013 c-6 -14 -5 -15 5 -6 7 7 10 15 7 18 -3 3 -9 -2 -12 -12z"/>
<path d="M7033 7003 c-7 -2 -13 -12 -13 -21 0 -14 2 -14 9 -3 5 7 14 11 20 7
7 -5 9 -1 5 8 -3 9 -7 16 -8 15 0 0 -7 -3 -13 -6z"/>
<path d="M7840 6990 c0 -5 4 -10 9 -10 6 0 13 5 16 10 3 6 -1 10 -9 10 -9 0
-16 -4 -16 -10z"/>
<path d="M7196 6963 c-6 -14 -5 -15 5 -6 7 7 10 15 7 18 -3 3 -9 -2 -12 -12z"/>
<path d="M7590 6956 c0 -8 5 -18 10 -21 6 -3 10 3 10 14 0 12 -4 21 -10 21 -5
0 -10 -6 -10 -14z"/>
<path d="M7914 6952 c-9 -5 -8 -11 2 -20 12 -11 14 -9 14 8 0 22 0 23 -16 12z"/>
<path d="M6604 6909 c-4 -7 -3 -9 4 -5 5 3 13 0 15 -6 4 -9 6 -10 6 -1 1 17
-16 25 -25 12z"/>
<path d="M9781 6904 c0 -11 3 -14 6 -6 3 7 2 16 -1 19 -3 4 -6 -2 -5 -13z"/>
<path d="M7322 6890 c-10 -17 -10 -20 3 -20 8 0 15 -8 16 -17 0 -12 2 -13 6
-5 3 7 -1 19 -7 27 -9 11 -9 15 -1 15 6 0 11 5 11 10 0 17 -14 11 -28 -10z"/>
<path d="M7585 6900 c-3 -5 -1 -10 4 -10 6 0 11 5 11 10 0 6 -2 10 -4 10 -3 0
-8 -4 -11 -10z"/>
<path d="M6146 6874 c3 -35 12 -41 12 -9 0 14 -4 27 -8 30 -4 2 -6 -7 -4 -21z"/>
<path d="M6555 6880 c-3 -5 -1 -10 4 -10 6 0 11 5 11 10 0 6 -2 10 -4 10 -3 0
-8 -4 -11 -10z"/>
<path d="M6110 6869 c0 -5 5 -7 10 -4 6 3 10 8 10 11 0 2 -4 4 -10 4 -5 0 -10
-5 -10 -11z"/>
<path d="M7281 6864 c0 -11 3 -14 6 -6 3 7 2 16 -1 19 -3 4 -6 -2 -5 -13z"/>
<path d="M9661 6824 c-2 -50 16 -61 21 -11 2 17 8 30 13 27 6 -3 9 -11 9 -17
-2 -16 13 -17 18 -1 3 7 7 6 11 -5 4 -10 2 -17 -6 -17 -8 0 -6 -4 3 -10 26
-17 31 -11 15 20 -9 17 -13 36 -9 42 4 6 3 8 -3 5 -6 -4 -23 -3 -40 2 -29 9
-29 8 -32 -35z"/>
<path d="M9863 6854 c-15 -16 -16 -24 -4 -24 8 0 24 30 19 35 -2 2 -9 -3 -15
-11z"/>
<path d="M6190 6848 c0 -4 7 -8 15 -8 8 0 15 4 15 8 0 5 -7 9 -15 9 -8 0 -15
-4 -15 -9z"/>
<path d="M9325 6849 c-11 -16 -1 -19 13 -3 7 8 8 14 3 14 -5 0 -13 -5 -16 -11z"/>
<path d="M9363 6845 c-15 -17 -17 -29 -3 -20 6 3 10 -4 11 -17 0 -13 3 -17 6
-10 2 6 9 9 15 6 7 -4 7 0 0 12 -5 11 -7 25 -5 32 6 16 -9 15 -24 -3z"/>
<path d="M5365 6840 c-16 -7 -17 -9 -3 -9 9 -1 20 4 23 9 7 11 7 11 -20 0z"/>
<path d="M5831 6841 c-8 -5 -9 -11 -3 -15 5 -3 12 1 16 9 6 17 6 18 -13 6z"/>
<path d="M7300 6840 c0 -5 5 -10 10 -10 6 0 10 5 10 10 0 6 -4 10 -10 10 -5 0
-10 -4 -10 -10z"/>
<path d="M10007 6823 c-4 -3 -7 -15 -7 -25 0 -19 -15 -24 -25 -9 -3 5 -18 8
-33 6 -15 -2 -31 -4 -35 -4 -5 -1 -5 -6 -2 -11 4 -6 11 -8 16 -5 5 4 9 1 9 -4
0 -6 8 -11 18 -10 10 0 12 3 4 6 -6 2 -10 9 -6 14 9 14 24 10 24 -7 0 -8 5
-12 10 -9 6 3 10 1 10 -4 0 -6 4 -11 10 -11 5 0 7 7 4 15 -6 14 3 18 36 16 10
0 11 1 2 5 -6 3 -9 11 -6 16 4 7 2 8 -4 4 -7 -4 -12 -3 -12 3 0 5 6 12 13 14
8 4 6 6 -4 6 -9 1 -19 -2 -22 -6z"/>
<path d="M7080 6809 c0 -5 5 -7 10 -4 6 3 10 8 10 11 0 2 -4 4 -10 4 -5 0 -10
-5 -10 -11z"/>
<path d="M7507 6806 c-10 -8 -14 -16 -10 -19 5 -3 14 3 21 14 14 22 13 23 -11
5z"/>
<path d="M8967 6801 c-3 -11 1 -22 9 -25 10 -4 13 2 12 19 -3 30 -14 33 -21 6z"/>
<path d="M9006 6811 c-3 -4 -4 -18 -1 -30 2 -11 0 -21 -6 -21 -5 0 -9 -18 -9
-40 0 -37 2 -40 23 -36 13 2 30 0 38 -5 11 -7 9 -9 -8 -9 -12 0 -24 -4 -27 -8
-8 -13 11 -35 23 -28 6 4 11 2 11 -4 0 -6 5 -8 10 -5 6 4 10 -43 10 -133 0
-118 -2 -141 -16 -146 -16 -6 -31 5 -51 42 -15 25 -17 82 -4 82 5 0 11 9 14
20 3 11 1 20 -4 20 -5 0 -9 -8 -10 -17 0 -15 -2 -15 -9 2 -12 28 -12 37 0 30
6 -3 10 -2 10 4 0 5 3 17 6 26 4 10 2 15 -7 13 -7 -2 -13 3 -14 10 0 7 -5 16
-11 20 -6 4 -14 14 -17 22 -3 8 -6 -2 -6 -22 -1 -21 2 -37 7 -37 18 3 32 -2
32 -12 0 -5 -4 -7 -10 -4 -5 3 -10 2 -10 -4 0 -6 -12 -8 -28 -5 -17 3 -44 -1
-68 -12 -21 -9 -42 -18 -46 -18 -14 -2 -21 -16 -8 -16 19 0 1 -16 -27 -25 -17
-4 -23 -2 -23 8 0 9 6 18 13 20 9 4 9 6 -1 6 -7 1 -10 6 -7 11 3 6 -3 10 -14
10 -10 0 -22 6 -24 13 -3 7 -6 5 -6 -5 -1 -10 -8 -18 -16 -18 -8 0 -15 -4 -15
-9 0 -5 -9 -11 -20 -14 -11 -3 -20 -10 -20 -17 0 -7 9 -14 20 -17 19 -5 20
-14 20 -130 0 -114 -1 -124 -17 -119 -24 7 -57 -19 -50 -39 11 -28 57 -18 93
21 19 19 34 43 35 52 0 9 3 26 5 37 3 11 6 31 7 44 1 13 8 26 16 29 10 3 12
-1 8 -18 -3 -12 -3 -19 0 -16 3 3 11 -1 18 -10 18 -26 79 -22 102 6 9 10 12
11 13 3 0 -13 61 -19 73 -7 6 6 26 8 141 13 25 1 28 4 23 27 -4 23 -2 25 22
19 14 -4 28 -10 31 -14 13 -20 50 -31 74 -21 14 5 26 6 26 2 0 -4 5 1 11 11 7
12 15 15 22 9 7 -5 42 -7 79 -4 54 3 67 8 71 23 3 11 1 17 -4 13 -5 -3 -10 -2
-10 3 -7 48 -6 63 2 58 5 -4 4 6 -1 21 -6 15 -10 39 -9 53 6 84 -10 102 -63
72 -25 -14 -45 -17 -83 -12 -28 3 -51 12 -52 19 -2 6 4 12 12 12 24 0 18 19
-10 32 -14 6 -25 15 -25 20 0 4 -4 8 -9 8 -5 0 -7 -9 -4 -19 3 -13 -4 -24 -26
-37 -25 -15 -28 -20 -18 -33 9 -12 9 -13 0 -7 -7 4 -13 3 -13 -2 0 -5 -9 -12
-19 -15 -14 -3 -18 -1 -14 9 3 8 10 14 17 14 6 0 5 4 -3 9 -7 5 -10 14 -7 20
4 6 12 9 17 6 5 -4 9 -1 9 4 0 6 -9 11 -20 11 -11 0 -20 5 -20 11 0 6 7 9 15
6 8 -4 17 -2 20 3 4 6 0 10 -8 10 -8 0 -18 17 -24 43 -9 36 -12 39 -18 20 -4
-12 -14 -24 -22 -27 -8 -3 -11 -1 -8 4 3 6 1 10 -6 10 -6 0 -9 10 -7 23 3 16
0 24 -9 24 -10 0 -13 -8 -8 -24 3 -13 3 -28 0 -33 -8 -13 -58 37 -52 52 4 10
6 10 6 1 1 -19 31 -16 31 3 0 13 7 15 36 11 30 -5 34 -4 24 8 -17 21 -48 19
-62 -4 -11 -18 -12 -18 -25 6 -7 14 -10 29 -7 34 3 5 1 9 -5 9 -5 0 -12 -4
-15 -9z m19 -103 c6 -4 2 -8 -7 -8 -10 0 -18 7 -18 17 0 9 3 12 8 7 4 -5 12
-12 17 -16z m373 -250 c-1 -72 -2 -76 -24 -81 -13 -2 -24 0 -24 4 0 5 -7 9
-16 9 -8 0 -13 4 -9 9 3 6 17 6 34 1 24 -7 29 -5 24 6 -3 9 -12 13 -19 10 -12
-4 -31 28 -26 46 1 3 -6 9 -15 12 -13 5 -15 1 -10 -23 5 -24 3 -29 -9 -24 -15
6 -14 24 2 67 4 9 1 16 -6 16 -10 0 -10 3 0 15 17 20 44 20 36 -1 -4 -10 -1
-14 6 -11 7 2 12 13 10 25 -3 19 -1 20 22 9 24 -11 25 -16 24 -89z m-183 66
c-6 -2 -9 -22 -7 -43 4 -38 -19 -91 -39 -91 -14 0 -10 26 6 40 8 7 12 16 9 21
-3 5 0 9 7 9 9 0 9 3 0 14 -14 17 2 57 22 55 7 0 8 -2 2 -5z m-291 -36 c-3 -4
-15 -8 -27 -8 -15 0 -18 3 -9 8 17 11 43 11 36 0z m-30 -33 c3 -9 -3 -19 -14
-25 -11 -6 -20 -7 -20 -3 0 4 -5 0 -11 -9 -11 -20 -29 -24 -29 -7 0 5 5 7 10
4 6 -4 9 -1 8 7 -2 7 5 12 15 12 15 -2 21 8 18 29 -2 13 17 7 23 -8z m-75 -27
c-5 -9 -14 -20 -20 -23 -7 -5 -7 -11 1 -20 8 -9 8 -15 0 -20 -5 -3 -10 -1 -10
5 0 6 -4 8 -10 5 -6 -4 -10 10 -10 34 0 38 1 40 29 38 24 -2 27 -5 20 -19z
m67 -53 c-3 -8 -1 -15 4 -15 6 0 10 -4 10 -10 0 -5 -6 -10 -14 -10 -10 0 -16
31 -7 48 5 10 12 -1 7 -13z m324 5 c0 -5 -4 -10 -10 -10 -5 0 -10 5 -10 10 0
6 5 10 10 10 6 0 10 -4 10 -10z"/>
<path d="M9375 6520 c-3 -5 -1 -10 4 -10 6 0 11 5 11 10 0 6 -2 10 -4 10 -3 0
-8 -4 -11 -10z"/>
<path d="M9330 6490 c0 -5 7 -10 16 -10 8 0 12 5 9 10 -3 6 -10 10 -16 10 -5
0 -9 -4 -9 -10z"/>
<path d="M9350 6453 c0 -7 2 -13 4 -13 2 0 11 -2 18 -5 9 -4 14 2 14 14 0 12
-7 19 -18 18 -10 -1 -18 -7 -18 -14z"/>
<path d="M9845 6810 c-4 -6 -2 -17 4 -24 6 -7 8 -22 4 -31 -4 -13 -3 -16 5
-11 16 10 15 43 0 49 -10 4 -9 8 2 16 9 7 10 11 3 11 -6 0 -15 -5 -18 -10z"/>
<path d="M9810 6800 c0 -5 5 -10 10 -10 6 0 10 5 10 10 0 6 -4 10 -10 10 -5 0
-10 -4 -10 -10z"/>
<path d="M9140 6782 c0 -12 9 -18 27 -20 23 -2 26 11 2 14 -22 3 -23 5 -9 14
13 8 12 10 -2 10 -11 0 -18 -7 -18 -18z"/>
<path d="M9292 6781 c7 -9 14 -18 15 -20 2 -2 3 5 3 16 0 11 -7 20 -15 20 -12
0 -12 -3 -3 -16z"/>
<path d="M9637 6784 c-3 -5 1 -15 9 -22 16 -14 18 -5 5 17 -5 7 -11 9 -14 5z"/>
<path d="M9695 6780 c3 -5 8 -10 11 -10 2 0 4 5 4 10 0 6 -5 10 -11 10 -5 0
-7 -4 -4 -10z"/>
<path d="M9796 6764 c-11 -7 -17 -17 -13 -20 3 -4 14 1 23 10 21 22 15 28 -10
10z"/>
<path d="M10100 6765 c0 -8 7 -15 15 -15 8 0 15 4 15 9 0 5 -7 11 -15 15 -9 3
-15 0 -15 -9z"/>
<path d="M8665 6760 c3 -5 10 -10 16 -10 5 0 9 5 9 10 0 6 -7 10 -16 10 -8 0
-12 -4 -9 -10z"/>
<path d="M9735 6760 c3 -5 8 -10 11 -10 2 0 4 5 4 10 0 6 -5 10 -11 10 -5 0
-7 -4 -4 -10z"/>
<path d="M7250 6749 c0 -5 5 -7 10 -4 6 3 10 8 10 11 0 2 -4 4 -10 4 -5 0 -10
-5 -10 -11z"/>
<path d="M9906 6743 c-6 -14 -5 -15 5 -6 7 7 10 15 7 18 -3 3 -9 -2 -12 -12z"/>
<path d="M10010 6743 c-14 -7 -19 -13 -11 -13 8 0 11 -6 7 -16 -4 -10 -1 -14
6 -11 7 2 12 11 10 21 -2 9 2 16 8 16 5 0 10 -5 10 -10 0 -6 8 -10 18 -8 12 2
16 -3 15 -17 -1 -11 0 -15 3 -8 3 7 12 9 20 6 8 -3 14 0 14 5 0 6 -9 14 -20
17 -23 7 -26 21 -7 28 6 2 -1 4 -18 3 -16 0 -41 -6 -55 -13z"/>
<path d="M9177 6743 c-4 -3 -7 -11 -7 -17 0 -6 5 -5 12 2 6 6 9 14 7 17 -3 3
-9 2 -12 -2z"/>
<path d="M9210 6736 c0 -8 4 -17 8 -20 4 -2 8 4 8 15 0 10 -4 19 -8 19 -4 0
-8 -6 -8 -14z"/>
<path d="M9311 6734 c0 -11 3 -14 6 -6 3 7 2 16 -1 19 -3 4 -6 -2 -5 -13z"/>
<path d="M9675 6731 c2 -9 4 -24 4 -33 2 -33 16 -18 16 15 0 19 -5 34 -11 34
-7 0 -10 -7 -9 -16z"/>
<path d="M9930 6730 c0 -11 2 -20 4 -20 2 0 6 9 9 20 3 11 1 20 -4 20 -5 0 -9
-9 -9 -20z"/>
<path d="M9965 6741 c-3 -5 -2 -12 3 -15 5 -3 9 1 9 9 0 17 -3 19 -12 6z"/>
<path d="M8630 6731 c0 -11 26 -22 34 -14 12 12 5 23 -14 23 -11 0 -20 -4 -20
-9z"/>
<path d="M9450 6724 c0 -12 -6 -15 -25 -10 -19 5 -28 1 -42 -20 -16 -25 -16
-27 0 -39 9 -6 14 -15 11 -18 -4 -3 5 -4 20 -1 14 2 26 0 26 -6 0 -16 24 -7
32 12 5 11 13 15 24 11 14 -5 14 -3 3 16 -8 11 -19 21 -25 21 -6 0 -10 11 -9
25 2 14 -1 25 -6 25 -5 0 -9 -7 -9 -16z"/>
<path d="M9830 6728 c6 -7 10 -19 10 -27 0 -14 -2 -14 -10 -1 -8 12 -10 12
-16 -3 -3 -10 -4 -21 0 -24 3 -4 6 -1 6 6 0 7 5 9 10 6 18 -11 24 26 6 41 -9
8 -11 9 -6 2z"/>
<path d="M7540 6714 c0 -8 5 -12 10 -9 6 4 8 11 5 16 -9 14 -15 11 -15 -7z"/>
<path d="M8337 6715 c-4 -8 -2 -17 3 -20 6 -4 10 -4 10 -1 0 2 3 11 6 20 3 9
2 16 -4 16 -5 0 -12 -7 -15 -15z"/>
<path d="M9334 6712 c3 -5 0 -13 -6 -15 -8 -3 -6 -6 5 -6 19 -1 23 14 5 25 -6
4 -8 3 -4 -4z"/>
<path d="M10132 6706 c7 -8 15 -12 17 -11 5 6 -10 25 -20 25 -5 0 -4 -6 3 -14z"/>
<path d="M8952 6698 c3 -7 -7 -22 -21 -35 -14 -12 -20 -23 -13 -23 6 0 12 4
12 9 0 5 9 13 20 16 21 7 28 45 9 45 -6 0 -9 -5 -7 -12z"/>
<path d="M9185 6700 c-3 -5 -2 -10 4 -10 5 0 13 5 16 10 3 6 2 10 -4 10 -5 0
-13 -4 -16 -10z"/>
<path d="M8600 6690 c0 -5 9 -10 19 -10 11 0 23 5 26 10 4 6 -5 10 -19 10 -14
0 -26 -4 -26 -10z"/>
<path d="M8652 6680 c-7 -11 -8 -20 -2 -20 5 0 14 9 20 20 6 11 7 20 3 20 -5
0 -14 -9 -21 -20z"/>
<path d="M9640 6689 c0 -5 5 -7 10 -4 6 3 10 8 10 11 0 2 -4 4 -10 4 -5 0 -10
-5 -10 -11z"/>
<path d="M9861 6684 c0 -11 3 -14 6 -6 3 7 2 16 -1 19 -3 4 -6 -2 -5 -13z"/>
<path d="M10163 6673 c-1 -18 2 -22 7 -12 5 7 12 10 16 6 4 -3 2 -13 -5 -21
-9 -10 -8 -15 2 -19 20 -7 44 8 26 17 -10 4 -11 7 -2 12 7 3 9 12 6 20 -3 7
-9 11 -14 8 -6 -3 -15 -1 -22 4 -9 8 -12 3 -14 -15z"/>
<path d="M8071 6673 c-16 -17 -11 -25 8 -14 7 5 12 13 10 19 -2 6 -10 4 -18
-5z"/>
<path d="M8371 6674 c0 -11 3 -14 6 -6 3 7 2 16 -1 19 -3 4 -6 -2 -5 -13z"/>
<path d="M8540 6680 c0 -6 7 -10 15 -10 8 0 15 2 15 4 0 2 -7 6 -15 10 -8 3
-15 1 -15 -4z"/>
<path d="M10020 6665 c0 -16 2 -17 10 -5 8 13 10 12 10 -4 0 -24 13 -12 15 13
1 13 -5 19 -17 18 -11 -1 -18 -9 -18 -22z"/>
<path d="M9290 6670 c0 -5 5 -10 11 -10 5 0 7 5 4 10 -3 6 -8 10 -11 10 -2 0
-4 -4 -4 -10z"/>
<path d="M9327 6653 c-5 -27 9 -70 20 -60 2 3 0 15 -7 26 -6 12 -7 21 -2 21 4
0 8 9 9 20 3 30 -14 24 -20 -7z"/>
<path d="M9740 6669 c0 -5 5 -7 10 -4 6 3 10 8 10 11 0 2 -4 4 -10 4 -5 0 -10
-5 -10 -11z"/>
<path d="M9926 6667 c3 -10 9 -15 12 -12 3 3 0 11 -7 18 -10 9 -11 8 -5 -6z"/>
<path d="M10228 6644 c-2 -19 0 -37 4 -40 4 -3 8 13 8 35 0 51 -6 53 -12 5z"/>
<path d="M8876 6653 c-6 -14 -5 -15 5 -6 7 7 10 15 7 18 -3 3 -9 -2 -12 -12z"/>
<path d="M8977 6656 c-10 -25 -9 -38 2 -31 5 3 11 -5 13 -17 3 -24 45 -34 45
-11 0 8 -7 11 -14 9 -8 -3 -16 2 -19 12 -17 52 -20 57 -27 38z"/>
<path d="M8515 6650 c3 -5 8 -10 11 -10 2 0 4 5 4 10 0 6 -5 10 -11 10 -5 0
-7 -4 -4 -10z"/>
<path d="M9570 6649 c0 -5 5 -7 10 -4 6 3 10 8 10 11 0 2 -4 4 -10 4 -5 0 -10
-5 -10 -11z"/>
<path d="M8610 6640 c0 -6 12 -10 27 -10 29 0 24 12 -7 17 -11 2 -20 -2 -20
-7z"/>
<path d="M8030 6629 c0 -5 5 -7 10 -4 9 6 14 -8 11 -27 0 -5 4 -8 9 -8 16 0
11 37 -6 44 -21 8 -24 8 -24 -5z"/>
<path d="M9646 6625 c-9 -26 -7 -32 5 -12 6 10 9 21 6 23 -2 3 -7 -2 -11 -11z"/>
<path d="M10110 6629 c0 -5 5 -7 10 -4 6 3 10 8 10 11 0 2 -4 4 -10 4 -5 0
-10 -5 -10 -11z"/>
<path d="M8460 6618 c0 -11 -12 -18 -42 -23 -78 -11 -98 -17 -98 -25 0 -5 9
-12 20 -15 19 -6 20 -15 20 -146 0 -112 -3 -139 -14 -139 -8 0 -17 -7 -20 -16
-6 -15 3 -16 83 -12 162 10 228 64 240 198 5 56 4 73 -9 85 -13 14 -13 17 0
25 12 8 11 10 -6 10 -17 0 -20 5 -16 25 2 15 0 25 -7 25 -7 0 -10 -4 -6 -9 3
-5 1 -12 -4 -16 -5 -3 -13 1 -18 8 -12 20 -53 32 -53 15 -1 -8 -6 -6 -15 6
-13 17 -15 18 -15 3 0 -22 -16 -22 -29 1 -9 15 -10 15 -11 0z m40 -58 c0 -5 9
-10 20 -10 28 0 51 -52 51 -115 0 -92 -48 -160 -109 -153 l-27 3 -2 110 c-3
125 1 155 22 155 8 0 15 5 15 10 0 6 7 10 15 10 8 0 15 -4 15 -10z"/>
<path d="M8730 6620 c-8 -5 -18 -6 -22 -4 -4 3 -8 4 -8 2 0 -2 -4 -18 -9 -35
-5 -18 -6 -32 -3 -32 19 3 23 -2 12 -16 -7 -8 -9 -15 -5 -15 4 0 13 8 20 17
11 14 17 15 36 6 39 -19 59 -23 59 -13 0 6 -9 10 -21 10 -14 0 -19 5 -16 15 4
8 2 17 -4 21 -5 3 -7 15 -3 26 4 13 2 18 -4 14 -6 -3 -12 -2 -14 4 -2 6 -9 6
-18 0z"/>
<path d="M9840 6611 c0 -5 -8 -12 -17 -14 -10 -3 -6 -4 8 -4 18 1 25 6 22 14
-6 15 -13 17 -13 4z"/>
<path d="M9930 6606 c0 -2 7 -6 15 -10 8 -3 15 -1 15 4 0 6 -7 10 -15 10 -8 0
-15 -2 -15 -4z"/>
<path d="M7610 6589 c0 -5 5 -7 10 -4 6 3 10 8 10 11 0 2 -4 4 -10 4 -5 0 -10
-5 -10 -11z"/>
<path d="M9620 6575 c0 -8 2 -15 4 -15 2 0 6 7 10 15 3 8 1 15 -4 15 -6 0 -10
-7 -10 -15z"/>
<path d="M9975 6580 c3 -5 8 -10 11 -10 2 0 4 5 4 10 0 6 -5 10 -11 10 -5 0
-7 -4 -4 -10z"/>
<path d="M10228 6570 c-7 -24 -3 -38 8 -28 3 4 4 17 2 30 l-3 23 -7 -25z"/>
<path d="M10090 6563 c-13 -15 -12 -16 4 -10 10 4 20 7 22 7 2 0 4 5 4 10 0
15 -13 12 -30 -7z"/>
<path d="M10146 6564 c-5 -14 -4 -15 9 -4 17 14 19 20 6 20 -5 0 -12 -7 -15
-16z"/>
<path d="M8020 6556 c0 -9 -15 -17 -40 -21 -43 -7 -52 -20 -20 -30 16 -5 18
-9 8 -31 -8 -17 -8 -28 -2 -32 5 -4 11 -18 12 -32 1 -19 -1 -21 -8 -10 -7 11
-10 11 -10 2 0 -9 -15 -12 -50 -11 -43 2 -50 5 -50 23 1 20 2 20 14 4 15 -20
36 -24 36 -7 0 5 -4 7 -10 4 -5 -3 -10 0 -10 8 0 8 -7 18 -16 21 -15 6 -15 8
0 31 17 26 21 55 8 55 -38 0 -122 -25 -122 -36 0 -8 9 -14 21 -14 20 0 21 -3
18 -126 -3 -105 -7 -128 -21 -138 -29 -21 -21 -26 41 -26 63 0 86 14 58 35
-12 9 -17 27 -17 63 0 55 0 55 76 67 40 6 41 6 39 -22 -1 -15 -3 -44 -3 -64
-2 -28 -7 -39 -24 -45 -17 -6 -7 -9 40 -11 44 -3 68 0 84 11 20 14 24 14 39 0
16 -14 19 -14 38 5 17 17 19 25 11 41 -14 27 -35 25 -58 -4 -11 -14 -28 -24
-41 -23 -22 1 -30 17 -8 17 9 0 9 2 -1 9 -10 6 -12 37 -10 127 3 106 5 119 21
118 9 -1 17 4 17 12 0 8 -5 14 -11 14 -5 0 -7 5 -3 11 4 7 -1 7 -16 -1 -20
-11 -22 -10 -17 4 4 9 2 16 -3 16 -6 0 -10 -6 -10 -14z"/>
<path d="M9040 6561 c0 -6 4 -12 8 -15 5 -3 9 1 9 9 0 8 -4 15 -9 15 -4 0 -8
-4 -8 -9z"/>
<path d="M10020 6549 c0 -5 5 -7 10 -4 6 3 10 8 10 11 0 2 -4 4 -10 4 -5 0
-10 -5 -10 -11z"/>
<path d="M9535 6540 c3 -5 8 -10 11 -10 2 0 4 5 4 10 0 6 -5 10 -11 10 -5 0
-7 -4 -4 -10z"/>
<path d="M10129 6499 c4 -13 13 -24 20 -25 6 -1 7 0 1 3 -5 2 -10 11 -10 18 0
8 -4 17 -10 20 -6 4 -7 -2 -1 -16z"/>
<path d="M10170 6459 c0 -5 5 -7 10 -4 6 3 10 8 10 11 0 2 -4 4 -10 4 -5 0
-10 -5 -10 -11z"/>
<path d="M7940 6435 c0 -8 4 -15 10 -15 5 0 7 7 4 15 -4 8 -8 15 -10 15 -2 0
-4 -7 -4 -15z"/>
<path d="M9000 6434 c0 -8 5 -12 10 -9 6 3 10 10 10 16 0 5 -4 9 -10 9 -5 0
-10 -7 -10 -16z"/>
<path d="M9921 6423 c-1 -6 -4 -20 -7 -30 -5 -17 -5 -17 6 0 6 10 9 23 6 30
-3 9 -5 9 -5 0z"/>
<path d="M10120 6413 c-13 -15 -12 -16 4 -10 10 4 20 7 22 7 2 0 4 5 4 10 0
15 -13 12 -30 -7z"/>
<path d="M2340 5953 c-1 -252 -3 -709 -6 -1015 l-6 -558 36 0 36 0 -1 958 c-1
526 -4 983 -7 1015 -4 52 -6 57 -28 57 l-24 0 0 -457z"/>
<path d="M9596 6363 c-6 -14 -5 -15 5 -6 7 7 10 15 7 18 -3 3 -9 -2 -12 -12z"/>
<path d="M9481 6314 c0 -11 3 -14 6 -6 3 7 2 16 -1 19 -3 4 -6 -2 -5 -13z"/>
<path d="M3401 6288 c1 -18 1 -331 0 -695 l-1 -663 -27 -1 c-26 0 -26 -1 -7
-9 33 -13 38 -29 12 -39 l-23 -10 23 0 c21 -1 22 -4 22 -96 l0 -95 30 0 30 0
0 74 c0 41 4 78 10 81 5 3 21 -6 36 -22 l25 -28 -7 25 c-3 14 -19 39 -35 55
l-29 31 0 712 0 712 -30 0 c-28 0 -31 -3 -29 -32z m79 -1428 c0 -5 -2 -10 -4
-10 -3 0 -8 5 -11 10 -3 6 -1 10 4 10 6 0 11 -4 11 -10z"/>
<path d="M9434 6307 c-4 -7 -4 -9 1 -5 4 4 14 3 22 -3 8 -7 13 -8 13 -1 0 15
-28 23 -36 9z"/>
<path d="M9556 6303 c-6 -14 -5 -15 5 -6 7 7 10 15 7 18 -3 3 -9 -2 -12 -12z"/>
<path d="M9490 6260 c0 -5 5 -10 11 -10 5 0 7 5 4 10 -3 6 -8 10 -11 10 -2 0
-4 -4 -4 -10z"/>
<path d="M9210 6219 c0 -5 5 -7 10 -4 6 3 10 8 10 11 0 2 -4 4 -10 4 -5 0 -10
-5 -10 -11z"/>
<path d="M9665 6190 c-3 -5 -1 -10 4 -10 6 0 11 5 11 10 0 6 -2 10 -4 10 -3 0
-8 -4 -11 -10z"/>
<path d="M5978 6116 c59 -68 98 -183 108 -320 6 -80 -4 -138 -33 -205 -9 -19
-16 -46 -17 -60 -1 -14 -5 -32 -9 -38 -5 -7 -4 -13 0 -13 5 0 21 24 35 53 49
96 64 270 33 382 -10 33 -20 72 -22 88 -3 15 -11 27 -18 27 -7 0 -11 9 -8 23
5 25 -43 81 -78 90 -16 4 -15 0 9 -27z"/>
<path d="M5816 6110 c10 -19 22 -37 27 -38 4 -2 5 -8 2 -12 -3 -5 -3 -21 1
-36 6 -23 8 -24 16 -10 14 26 1 66 -34 100 l-31 31 19 -35z"/>
<path d="M5721 6112 c-11 -21 -15 -52 -6 -52 3 0 14 9 26 21 19 19 20 23 6 36
-13 14 -16 13 -26 -5z"/>
<path d="M5570 6112 c-9 -4 -26 -15 -39 -24 -30 -21 -20 -40 13 -25 13 7 22
15 20 19 -3 4 10 14 28 22 23 10 27 14 13 14 -11 1 -27 -2 -35 -6z"/>
<path d="M10145 6070 c-3 -5 -1 -10 4 -10 6 0 11 5 11 10 0 6 -2 10 -4 10 -3
0 -8 -4 -11 -10z"/>
<path d="M5721 6004 c0 -11 3 -14 6 -6 3 7 2 16 -1 19 -3 4 -6 -2 -5 -13z"/>
<path d="M5714 5951 c3 -18 6 -41 6 -50 0 -14 2 -14 10 -1 14 22 12 43 -6 66
-15 18 -15 17 -10 -15z"/>
<path d="M10200 5950 c0 -5 5 -10 11 -10 5 0 7 5 4 10 -3 6 -8 10 -11 10 -2 0
-4 -4 -4 -10z"/>
<path d="M5367 5710 c3 -11 7 -20 9 -20 2 0 4 9 4 20 0 11 -4 20 -9 20 -5 0
-7 -9 -4 -20z"/>
<path d="M5930 5619 c0 -5 5 -7 10 -4 6 3 10 8 10 11 0 2 -4 4 -10 4 -5 0 -10
-5 -10 -11z"/>
<path d="M7853 5485 c-49 -52 -57 -76 -14 -44 25 18 31 19 50 8 24 -15 27 -39
9 -58 -7 -7 -8 -12 -3 -11 22 5 26 -1 10 -17 -10 -9 -33 -19 -54 -23 -27 -4
-35 -10 -33 -24 2 -9 -2 -24 -9 -32 -9 -11 -8 -14 5 -14 12 0 16 -6 12 -17 -3
-10 -1 -25 4 -33 15 -23 64 7 68 43 2 15 7 27 12 27 12 0 31 -70 23 -83 -3 -6
-1 -7 5 -3 7 4 10 -1 9 -14 -1 -11 -6 -19 -11 -17 -6 2 -19 -4 -29 -14 -16
-15 -17 -20 -5 -38 11 -18 11 -23 -1 -30 -23 -15 -41 -2 -32 21 4 12 6 31 3
43 -3 19 -8 22 -30 16 -34 -9 -40 -41 -16 -93 14 -32 20 -37 28 -26 15 20 38
26 61 17 16 -6 17 -8 3 -8 -21 -1 -15 -50 8 -68 10 -7 12 -13 5 -18 -14 -8
-14 -52 -1 -60 5 -3 7 -12 4 -19 -3 -9 3 -17 16 -21 21 -7 21 -7 -5 -21 -34
-17 -35 -17 -35 1 0 18 -16 20 -23 3 -3 -8 -6 -6 -6 5 -1 17 -21 25 -21 8 0
-13 22 -29 52 -36 16 -4 25 -11 22 -16 -3 -5 3 -9 12 -9 16 0 16 -2 -2 -21
-10 -12 -14 -23 -9 -27 17 -12 15 -60 -2 -66 -19 -8 -75 26 -104 62 l-22 27 7
-30 c9 -40 57 -82 102 -91 49 -9 155 11 220 42 58 27 73 41 79 74 4 19 1 21
-20 16 -46 -12 -34 11 20 37 71 35 144 87 121 87 -11 0 -14 4 -9 13 11 17 13
108 3 102 -5 -3 -5 6 0 22 11 37 19 188 9 171 -5 -7 -6 20 -3 61 6 83 -2 134
-16 111 -5 -8 -6 -26 -3 -41 3 -15 0 -30 -6 -33 -6 -4 -11 0 -11 9 0 9 -5 13
-10 10 -6 -4 -9 6 -8 26 2 24 -1 32 -14 34 -20 4 -25 -11 -6 -17 12 -4 3 -28
-11 -28 -5 0 -12 30 -17 68 l-8 67 -8 -55 c-5 -30 -9 -73 -9 -95 -1 -30 -3
-35 -9 -20 -4 11 -5 25 -3 32 3 7 -4 11 -16 10 -24 -1 -28 -28 -8 -49 6 -7 13
-20 15 -28 2 -15 -9 -2 -66 69 -87 111 -157 171 -200 171 -17 0 -40 -15 -69
-45z m92 -25 c3 -5 -3 -10 -15 -10 -12 0 -18 5 -15 10 3 6 10 10 15 10 5 0 12
-4 15 -10z m302 -132 c-3 -8 -6 -5 -6 6 -1 11 2 17 5 13 3 -3 4 -12 1 -19z
m36 -18 c3 -11 1 -18 -4 -14 -5 3 -9 12 -9 20 0 20 7 17 13 -6z m47 -350 c0
-5 -5 -10 -11 -10 -5 0 -7 5 -4 10 3 6 8 10 11 10 2 0 4 -4 4 -10z"/>
<path d="M5530 5500 c0 -5 4 -10 9 -10 6 0 13 5 16 10 3 6 -1 10 -9 10 -9 0
-16 -4 -16 -10z"/>
<path d="M5806 5408 c-16 -22 -15 -35 2 -24 9 5 24 46 17 46 -2 0 -11 -10 -19
-22z"/>
<path d="M5955 5406 c-11 -11 -33 -31 -50 -44 -29 -22 -29 -23 -5 -16 25 6 80
58 80 75 0 12 -1 11 -25 -15z"/>
<path d="M4170 5190 c-11 -7 -7 -10 17 -10 17 0 35 5 38 10 8 13 -35 13 -55 0z"/>
<path d="M4100 5172 c-18 -15 -21 -22 -13 -37 7 -12 13 -14 17 -6 4 6 1 11 -6
11 -10 0 -10 2 0 9 8 5 35 7 60 5 l47 -4 -40 13 c-27 9 -35 15 -25 19 13 5 12
7 -1 7 -9 1 -27 -7 -39 -17z"/>
<path d="M3771 5066 c-10 -24 -9 -38 6 -78 11 -32 23 -48 34 -48 10 0 19 -5
21 -11 2 -5 18 10 37 34 18 24 53 54 77 66 24 12 44 24 44 27 0 8 -70 -25
-101 -46 -35 -26 -38 -12 -4 20 14 13 23 26 20 28 -7 8 -65 -49 -65 -64 0 -6
-7 -17 -15 -24 -30 -25 -11 17 39 85 l30 40 -34 -30 -34 -30 17 27 c14 23 15
26 2 22 -8 -4 -15 -9 -15 -13 0 -4 -7 -16 -15 -27 -13 -18 -14 -18 -8 5 4 16
2 22 -5 17 -6 -3 -12 2 -15 11 -3 14 -7 12 -16 -11z m79 -106 c0 -5 -5 -10
-11 -10 -5 0 -7 5 -4 10 3 6 8 10 11 10 2 0 4 -4 4 -10z"/>
<path d="M3720 5043 c0 -11 49 -90 50 -80 0 11 -39 87 -45 87 -3 0 -5 -3 -5
-7z"/>
<path d="M5561 5024 c0 -11 3 -14 6 -6 3 7 2 16 -1 19 -3 4 -6 -2 -5 -13z"/>
<path d="M4028 4973 c7 -3 16 -2 19 1 4 3 -2 6 -13 5 -11 0 -14 -3 -6 -6z"/>
<path d="M4000 4944 c0 -10 -6 -14 -14 -11 -8 3 -16 -2 -19 -13 -4 -17 -3 -17
42 -2 36 13 41 17 23 20 -12 2 -20 8 -17 13 4 5 1 9 -4 9 -6 0 -11 -7 -11 -16z"/>
<path d="M8362 4901 c-9 -6 -8 -12 7 -25 14 -12 21 -14 26 -6 10 16 -17 41
-33 31z"/>
<path d="M4171 4849 c-33 -13 -20 -22 31 -20 24 2 52 2 63 2 20 0 20 0 1 15
-22 16 -60 17 -95 3z"/>
<path d="M8358 4825 c-20 -14 -42 -25 -48 -25 -6 0 -9 -4 -5 -9 3 -5 -8 -18
-25 -27 -16 -10 -30 -22 -30 -26 0 -4 -6 -8 -14 -8 -7 0 -24 -8 -37 -18 -33
-25 -137 -52 -254 -66 -25 -3 -30 -7 -28 -30 2 -29 0 -30 -28 -16 -13 8 -19 7
-19 0 0 -6 6 -13 13 -16 8 -3 14 -10 15 -17 1 -7 9 -47 18 -89 12 -54 20 -75
29 -71 16 6 28 33 15 33 -22 0 -8 29 22 49 32 19 33 20 40 1 7 -20 44 -18 63
4 21 22 58 51 51 38 -6 -10 -2 -13 15 -10 24 3 34 9 65 37 12 11 18 11 27 1 9
-10 9 -11 0 -6 -8 4 -14 -11 -19 -50 -4 -32 -12 -58 -20 -61 -17 -6 -8 -23 11
-23 9 0 12 6 8 17 -4 9 -2 14 4 10 16 -10 92 80 98 118 6 36 20 53 46 59 31 6
34 12 20 35 -8 12 -12 12 -25 2 -9 -8 -16 -11 -16 -8 0 3 -14 -8 -31 -24 -44
-41 -63 -39 -41 3 25 48 97 111 168 149 34 17 35 19 10 14 -35 -7 -112 -42
-149 -68 -16 -10 -31 -16 -34 -13 -4 3 -2 6 4 6 6 0 36 29 68 65 31 36 55 65
53 65 -2 0 -20 -11 -40 -25z m-381 -251 c-3 -3 -12 -4 -19 -1 -8 3 -5 6 6 6
11 1 17 -2 13 -5z"/>
<path d="M4092 4804 c-12 -13 -19 -24 -15 -24 10 1 53 36 53 44 0 12 -16 4
-38 -20z"/>
<path d="M7865 4780 c3 -5 14 -10 23 -10 15 0 15 2 2 10 -20 13 -33 13 -25 0z"/>
<path d="M4745 4700 c3 -5 8 -10 11 -10 2 0 4 5 4 10 0 6 -5 10 -11 10 -5 0
-7 -4 -4 -10z"/>
<path d="M4780 4689 c0 -5 5 -7 10 -4 6 3 10 8 10 11 0 2 -4 4 -10 4 -5 0 -10
-5 -10 -11z"/>
<path d="M4813 4675 c0 -20 2 -23 13 -14 7 6 10 17 7 25 -8 23 -20 16 -20 -11z"/>
<path d="M8500 4663 c-17 -14 -42 -46 -57 -72 -15 -25 -36 -56 -48 -68 -12
-12 -34 -47 -49 -77 -32 -62 -89 -124 -123 -132 -13 -4 -23 -9 -23 -13 0 -10
-67 -8 -76 2 -4 4 -12 7 -18 7 -6 0 -5 -4 3 -9 10 -6 4 -12 -21 -20 -23 -8
-37 -20 -45 -41 -18 -48 -83 -37 -83 15 -1 17 -2 18 -10 4 -6 -10 -10 -44 -11
-78 -1 -34 -5 -61 -10 -61 -5 0 -6 7 -3 15 4 9 0 15 -9 15 -9 0 -17 10 -19 22
-3 24 -48 37 -48 14 0 -25 -20 -29 -38 -8 -9 11 -34 29 -54 41 l-37 22 -14
-28 c-16 -31 -16 -49 7 -227 8 -65 20 -124 26 -131 6 -8 25 -17 41 -20 30 -7
34 -12 21 -31 -5 -7 -18 -8 -41 -2 -27 7 -31 12 -20 19 10 6 5 8 -16 4 -16 -2
-51 -7 -77 -10 -42 -5 -52 -12 -90 -58 -23 -29 -43 -54 -45 -56 -2 -2 -5 -2
-8 1 -3 2 9 26 25 52 39 61 38 68 -2 18 -39 -48 -63 -62 -55 -32 3 11 1 18 -3
15 -15 -9 -23 17 -9 27 10 7 8 8 -8 3 -16 -4 -26 0 -38 18 -10 15 -34 30 -63
38 -26 7 -50 17 -53 22 -10 15 -47 -15 -52 -42 -7 -33 -45 -74 -63 -67 -7 3
-16 1 -19 -4 -4 -6 -13 -10 -22 -10 -13 0 -15 9 -11 50 3 28 4 50 2 50 -2 0
-11 -25 -20 -55 -18 -55 -39 -58 -28 -5 4 22 3 23 -5 4 -9 -20 -14 -20 -205
-16 -153 3 -196 2 -196 -8 0 -17 31 -39 56 -40 11 0 24 -4 30 -9 5 -5 144 -25
309 -45 165 -21 404 -50 530 -66 323 -40 362 -43 430 -30 33 6 75 14 93 17 17
3 32 10 32 17 0 16 112 8 520 -34 150 -16 230 -13 230 8 0 8 -6 12 -14 9 -11
-4 -13 -1 -10 11 3 9 -2 6 -11 -8 -9 -14 -14 -17 -11 -7 3 11 0 20 -9 24 -12
4 -13 9 -4 19 16 19 4 18 -15 -2 -14 -13 -16 -13 -16 -1 0 9 -4 17 -9 19 -5 2
-12 17 -15 35 -7 29 -6 31 18 29 15 -2 26 2 26 9 0 8 25 14 73 18 214 19 237
20 237 8 0 -6 -4 -11 -8 -11 -13 0 -67 -125 -63 -147 1 -7 -3 -13 -9 -13 -5 0
-10 -8 -10 -18 0 -16 15 -21 103 -34 56 -9 103 -15 104 -14 6 5 24 196 29 311
6 131 -6 306 -27 380 -18 65 -80 117 -175 145 -108 32 -174 38 -186 16 -5 -9
-15 -16 -23 -16 -8 0 -11 -7 -8 -19 4 -15 -1 -18 -24 -17 -25 1 -29 5 -25 24
4 18 0 22 -17 19 -11 -2 -24 -6 -27 -10 -13 -12 -34 -7 -34 8 0 8 -4 15 -9 15
-6 0 -9 8 -9 18 3 66 -43 265 -64 278 -7 5 -8 3 -3 -6 6 -10 4 -12 -8 -7 -20
7 -93 -27 -129 -61 -16 -14 -28 -24 -28 -21 0 7 49 101 59 113 20 24 -29 15
-59 -11z m93 -128 c-3 -9 -8 -14 -10 -11 -3 3 -2 9 2 15 9 16 15 13 8 -4z
m-35 -101 c-12 -27 -24 -42 -26 -34 -4 22 41 119 46 99 1 -10 -7 -39 -20 -65z
m392 -84 c0 -5 6 -10 14 -10 8 0 18 -9 21 -20 8 -25 23 -26 42 -2 13 16 13 15
4 -4 -6 -12 -6 -26 0 -35 16 -26 9 -32 -11 -8 l-20 24 4 -25 c3 -14 5 -28 5
-31 1 -4 16 -9 34 -13 25 -5 29 -9 17 -16 -13 -8 -13 -11 -1 -19 8 -5 15 -28
16 -54 1 -38 -1 -43 -12 -31 -20 19 -26 17 -14 -5 6 -10 8 -21 4 -24 -3 -3 6
-9 21 -13 22 -5 24 -8 11 -21 -8 -8 -15 -20 -14 -26 0 -9 2 -8 6 1 8 21 32 14
26 -8 -3 -11 -10 -17 -15 -14 -6 4 -5 -3 1 -15 7 -11 8 -21 4 -21 -4 0 -2 -4
5 -8 14 -9 7 -39 -11 -45 -7 -2 -4 -3 6 -2 11 2 17 -3 17 -17 0 -12 -5 -18
-12 -15 -9 3 -13 -5 -13 -24 0 -19 4 -28 13 -24 6 2 12 1 12 -4 0 -11 -50 -32
-61 -26 -5 4 -9 1 -9 -4 0 -6 -4 -11 -10 -11 -5 0 -10 12 -10 26 0 21 -3 24
-14 15 -15 -13 -25 3 -27 42 0 21 -1 21 -10 -1 -5 -13 -7 -28 -4 -33 4 -5 -1
-6 -9 -3 -9 3 -16 17 -16 30 0 13 -3 23 -7 23 -22 -4 -32 3 -27 16 4 9 0 15
-7 15 -9 0 -10 3 -4 8 6 4 10 13 11 20 4 47 4 48 14 32 7 -11 9 -5 6 20 -6 48
-6 48 -18 20 -10 -22 -12 -23 -15 -6 -5 19 22 55 32 44 3 -3 7 -16 8 -29 2
-29 23 -55 30 -36 2 6 -2 18 -10 25 -15 15 -18 46 -3 37 5 -3 7 0 4 9 -4 10
-16 13 -42 9 -26 -3 -33 -2 -23 5 8 6 20 8 28 5 7 -3 13 0 13 6 0 6 -9 11 -21
11 -11 0 -18 4 -15 9 3 5 19 8 36 7 24 -2 30 2 30 18 0 17 -2 18 -10 6 -5 -8
-12 -11 -16 -7 -4 3 -1 13 5 21 10 12 8 13 -11 9 -13 -3 -28 -10 -35 -15 -7
-5 -14 -5 -18 2 -10 17 3 28 29 23 24 -5 25 -3 23 33 -2 33 -5 39 -24 38 -27
-1 -31 12 -5 18 26 7 42 -2 42 -23 0 -10 5 -19 11 -19 17 0 1 51 -23 72 -12
10 -25 18 -30 18 -13 0 -9 22 9 42 17 19 43 24 43 8z m-65 -64 c7 3 16 1 19
-5 4 -6 -4 -9 -20 -8 -15 1 -29 9 -32 17 -3 12 -2 12 8 3 7 -6 18 -9 25 -7z
m27 -100 c-5 -18 -7 -18 -10 -3 -2 9 -8 17 -14 17 -6 0 -5 6 2 15 17 20 30 2
22 -29z m-25 -2 c-3 -3 -12 -4 -19 -1 -8 3 -5 6 6 6 11 1 17 -2 13 -5z m-997
-36 c0 -7 -4 -19 -9 -27 -11 -17 -23 1 -15 23 7 19 24 21 24 4z m32 -143 c-2
-19 -6 -35 -8 -35 -2 0 -4 16 -4 35 0 19 4 35 8 35 4 0 6 -16 4 -35z m717 0
c-21 -20 -120 -71 -154 -79 -29 -7 -29 -7 -10 8 11 8 25 16 31 16 6 0 28 14
49 30 21 17 43 30 50 30 7 0 19 7 26 16 9 11 14 13 17 4 3 -7 -2 -18 -9 -25z
m258 -31 c-3 -3 -12 -4 -19 -1 -8 3 -5 6 6 6 11 1 17 -2 13 -5z m-999 -70 c-2
-19 0 -34 4 -34 4 0 8 -5 8 -11 0 -5 -4 -7 -10 -4 -5 3 -10 -4 -10 -16 0 -20
3 -21 44 -15 26 4 47 3 50 -3 4 -6 12 -8 19 -6 7 3 73 7 147 10 174 6 219 10
253 24 36 14 100 15 92 1 -3 -6 2 -13 12 -17 26 -9 53 -34 53 -50 0 -9 -13
-13 -40 -13 -27 0 -39 -4 -38 -12 3 -13 -18 -15 -59 -5 -12 3 -27 -1 -34 -9
-15 -18 -30 -18 -74 3 -33 16 -36 16 -48 0 -12 -17 -56 -20 -67 -5 -3 4 -30 9
-61 11 -30 1 -60 6 -67 11 -8 5 -12 0 -12 -13 0 -17 -6 -20 -36 -19 -29 1 -40
7 -55 32 l-19 31 0 -27 c0 -22 -4 -26 -22 -23 -12 3 -24 9 -27 14 -3 5 -16 11
-29 12 -12 2 -23 9 -24 14 -1 6 -8 15 -17 22 -14 11 -13 12 7 13 12 0 23 7 23
15 1 8 2 18 4 23 1 4 8 29 15 57 14 53 25 47 18 -11z m-218 -100 c0 -12 -112
-116 -118 -110 -3 4 19 31 48 61 50 51 70 65 70 49z m145 -24 c-3 -5 -11 -10
-16 -10 -6 0 -7 5 -4 10 3 6 11 10 16 10 6 0 7 -4 4 -10z m-395 -10 c0 -5 -4
-10 -10 -10 -5 0 -10 5 -10 10 0 6 5 10 10 10 6 0 10 -4 10 -10z m237 -57 c-9
-9 -20 -13 -24 -9 -4 4 -1 11 7 16 25 16 35 11 17 -7z m83 -7 c0 -2 -7 -7 -16
-10 -8 -3 -12 -2 -9 4 6 10 25 14 25 6z"/>
<path d="M8916 4333 c-11 -11 -7 -20 9 -20 8 0 15 4 15 8 0 11 -16 20 -24 12z"/>
<path d="M8960 4305 c0 -8 6 -15 13 -15 7 0 8 -3 2 -8 -15 -10 -18 -35 -4 -26
8 5 10 2 6 -9 -3 -9 1 -18 9 -21 25 -9 25 -8 9 24 -8 16 -15 32 -15 35 1 27
-1 35 -10 35 -5 0 -10 -7 -10 -15z"/>
<path d="M9000 4199 c0 -5 5 -7 10 -4 6 3 10 8 10 11 0 2 -4 4 -10 4 -5 0 -10
-5 -10 -11z"/>
<path d="M8945 4189 c-11 -17 1 -21 15 -4 8 9 8 15 2 15 -6 0 -14 -5 -17 -11z"/>
<path d="M9050 4159 c0 -5 5 -7 10 -4 6 3 10 8 10 11 0 2 -4 4 -10 4 -5 0 -10
-5 -10 -11z"/>
<path d="M8992 4120 c0 -19 2 -27 5 -17 2 9 2 25 0 35 -3 9 -5 1 -5 -18z"/>
<path d="M8981 4054 c0 -11 3 -14 6 -6 3 7 2 16 -1 19 -3 4 -6 -2 -5 -13z"/>
<path d="M8924 3944 c-15 -7 -5 -54 12 -54 8 0 14 5 14 10 0 6 -5 10 -12 10
-9 0 -9 3 0 12 21 21 14 33 -14 22z"/>
<path d="M3409 4668 c-1 -2 -3 -13 -4 -26 -2 -19 2 -23 24 -20 18 2 27 10 29
26 3 18 -1 22 -22 22 -14 0 -27 -1 -27 -2z"/>
<path d="M8580 4659 c0 -5 5 -7 10 -4 6 3 10 8 10 11 0 2 -4 4 -10 4 -5 0 -10
-5 -10 -11z"/>
<path d="M7545 4455 c3 -62 21 -145 32 -145 11 0 -5 135 -20 170 l-16 35 4
-60z"/>
<path d="M7980 4430 c-6 -11 -8 -20 -6 -20 3 0 10 9 16 20 6 11 8 20 6 20 -3
0 -10 -9 -16 -20z"/>
<path d="M5125 4325 c-20 -21 -38 -54 -46 -85 -12 -45 -19 -55 -41 -51 -5 0
-8 -6 -8 -14 0 -8 -4 -15 -10 -15 -5 0 -10 6 -10 14 0 13 -48 26 -102 26 -27
0 -28 2 -28 50 0 28 -3 50 -7 50 -16 -1 -86 -46 -94 -60 -5 -8 -17 -35 -28
-60 -11 -25 -20 -37 -21 -27 0 9 -3 17 -8 17 -12 0 -34 -59 -28 -75 3 -8 1
-15 -4 -15 -6 0 -10 -7 -10 -16 0 -8 -4 -13 -9 -10 -4 3 -8 -4 -7 -17 1 -25
36 -38 36 -12 0 10 -5 13 -12 9 -6 -4 -8 -3 -5 3 3 5 29 7 61 3 52 -6 56 -5
56 15 0 33 20 45 76 45 68 0 84 -7 84 -36 0 -19 5 -24 24 -24 16 0 27 7 31 20
5 15 16 20 48 22 23 1 51 2 62 2 14 1 21 9 22 26 2 14 7 54 12 90 27 182 25
189 -34 125z m-365 -254 c0 -6 -4 -12 -8 -15 -5 -3 -9 1 -9 9 0 8 4 15 9 15 4
0 8 -4 8 -9z"/>
<path d="M5905 4267 c-38 -28 -64 -58 -65 -75 0 -7 -4 -11 -9 -7 -9 5 -27 -31
-23 -46 0 -3 -18 -12 -41 -19 -23 -6 -55 -19 -71 -28 -27 -14 -29 -14 -23 2 4
10 3 15 -3 11 -6 -3 -10 -13 -10 -22 0 -9 -3 -14 -6 -10 -4 3 -13 0 -21 -8
-24 -25 -28 -18 -26 47 2 72 -5 110 -18 102 -5 -3 -7 -9 -4 -13 2 -5 -6 -6
-18 -4 -34 7 -98 -46 -128 -105 -20 -38 -23 -54 -15 -63 8 -9 8 -10 -3 -4 -10
6 -12 2 -6 -16 20 -66 68 -71 350 -39 200 22 356 27 338 9 -13 -13 -27 -15
-218 -29 -82 -7 -158 -15 -169 -19 -11 -5 42 -15 135 -25 85 -10 227 -26 316
-37 223 -26 202 -31 198 47 -2 36 -5 68 -8 70 -2 2 -53 11 -113 19 -60 8 -130
17 -155 21 l-46 6 1 122 c1 109 -1 121 -16 120 -10 -1 -18 2 -18 7 0 18 -75 8
-105 -14z"/>
<path d="M7540 4268 c0 -9 5 -20 10 -23 6 -3 10 -15 10 -26 0 -11 -4 -17 -10
-14 -13 8 -13 -39 -1 -82 9 -31 9 -31 -20 -23 -28 8 -37 2 -21 -14 12 -13 8
-30 -10 -44 -10 -7 -18 -19 -18 -27 0 -8 -9 -20 -20 -28 -22 -16 -17 -27 14
-27 17 0 18 -2 6 -10 -12 -8 -10 -10 10 -10 30 -1 69 -31 73 -57 1 -10 6 -24
10 -30 9 -14 65 -17 84 -5 14 9 6 52 -9 52 -5 0 -6 5 -3 10 3 6 1 10 -4 10 -6
0 -11 -7 -11 -15 0 -8 -4 -15 -9 -15 -10 0 -17 62 -27 228 -6 100 -9 117 -30
140 -18 21 -23 23 -24 10z"/>
<path d="M4060 4199 c0 -5 5 -7 10 -4 6 3 10 8 10 11 0 2 -4 4 -10 4 -5 0 -10
-5 -10 -11z"/>
<path d="M268 4073 c7 -3 16 -2 19 1 4 3 -2 6 -13 5 -11 0 -14 -3 -6 -6z"/>
<path d="M7632 4030 c0 -14 2 -19 5 -12 2 6 2 18 0 25 -3 6 -5 1 -5 -13z"/>
<path d="M4714 3985 c-3 -20 -5 -37 -3 -39 2 -2 25 -6 52 -9 50 -7 53 -4 41
40 -5 18 -11 22 -29 17 -15 -4 -24 0 -28 10 -11 27 -26 18 -33 -19z"/>
<path d="M4954 4011 c-2 -2 -4 -19 -4 -38 0 -30 3 -33 30 -33 28 0 30 3 30 38
0 33 -3 37 -26 37 -14 0 -28 -2 -30 -4z"/>
<path d="M4638 4003 c7 -3 16 -2 19 1 4 3 -2 6 -13 5 -11 0 -14 -3 -6 -6z"/>
<path d="M4650 3980 c-14 -4 -47 -9 -75 -10 -75 -2 -27 -18 58 -19 61 -1 67 1
67 19 0 21 -9 23 -50 10z"/>
<path d="M7631 3974 c0 -11 3 -14 6 -6 3 7 2 16 -1 19 -3 4 -6 -2 -5 -13z"/>
<path d="M5088 3921 c-40 -23 -35 -31 17 -31 37 0 45 3 45 19 0 25 -29 31 -62
12z"/>
<path d="M4883 3918 c21 -7 32 -7 40 1 8 8 0 11 -28 10 -40 -1 -40 -1 -12 -11z"/>
<path d="M375 3860 c-3 -6 1 -7 9 -4 18 7 21 14 7 14 -6 0 -13 -4 -16 -10z"/>
<path d="M7183 3858 c-10 -16 -14 -68 -7 -88 7 -19 43 45 44 78 0 24 -24 30
-37 10z"/>
<path d="M264 3841 c3 -5 23 -12 43 -15 21 -4 50 -9 66 -12 19 -4 27 -2 27 9
0 8 -13 17 -31 21 -46 9 -111 7 -105 -3z"/>
<path d="M7505 3790 c-4 -6 -11 -7 -17 -4 -7 4 -8 2 -4 -5 6 -9 11 -9 22 0 14
11 18 19 10 19 -3 0 -8 -5 -11 -10z"/>
<path d="M9529 3781 c6 -10 7 -21 4 -25 -3 -3 -2 -6 4 -6 6 0 14 -15 17 -32 7
-33 36 -82 36 -60 0 22 -52 142 -61 142 -6 0 -6 -8 0 -19z"/>
<path d="M9670 3668 c0 -13 -6 -30 -12 -37 -11 -11 -10 -12 1 -6 10 6 12 4 5
-6 -5 -8 -7 -22 -6 -31 2 -10 -2 -18 -7 -18 -6 0 -11 6 -11 14 0 8 -7 17 -16
20 -21 8 -33 -2 -16 -13 7 -4 18 -37 23 -72 6 -35 12 -73 14 -84 2 -11 4 -33
4 -48 1 -16 5 -26 10 -23 5 4 7 -3 4 -14 -3 -11 -10 -20 -16 -20 -7 0 -7 -3
-1 -9 5 -6 45 -12 89 -15 68 -5 74 -4 43 5 -33 10 -38 15 -39 42 -1 18 0 38 1
46 1 11 -2 10 -15 -3 -20 -20 -20 -20 -38 -1 -10 9 -14 26 -11 45 4 20 1 30
-8 30 -10 0 -10 2 1 9 7 5 14 20 14 35 0 23 7 30 28 28 4 -1 6 9 5 23 -1 16
-4 20 -12 14 -15 -12 -27 34 -19 71 3 16 1 31 -4 35 -7 4 -11 -3 -11 -17z"/>
<path d="M8816 3671 c-3 -5 2 -15 11 -22 14 -12 16 -12 9 0 -5 8 -3 17 5 22
11 7 11 9 -3 9 -9 0 -19 -4 -22 -9z"/>
<path d="M10041 3594 c0 -11 3 -14 6 -6 3 7 2 16 -1 19 -3 4 -6 -2 -5 -13z"/>
<path d="M105 3340 c3 -5 8 -10 11 -10 2 0 4 5 4 10 0 6 -5 10 -11 10 -5 0 -7
-4 -4 -10z"/>
<path d="M9828 3293 c6 -2 18 -2 25 0 6 3 1 5 -13 5 -14 0 -19 -2 -12 -5z"/>
<path d="M14 3258 c-10 -16 -12 -60 -3 -50 10 9 23 62 16 62 -3 0 -9 -5 -13
-12z"/>
<path d="M10179 3251 c15 -10 9 -12 -119 -44 l-55 -13 0 -1597 0 -1597 118 0
117 0 0 1630 0 1630 -37 0 c-27 0 -34 -3 -24 -9z"/>
<path d="M8245 3241 c-3 -5 -1 -12 5 -16 5 -3 10 -3 10 1 0 3 6 1 13 -5 14
-11 27 -5 27 12 0 6 -3 7 -6 4 -4 -3 -15 -2 -25 3 -11 6 -20 6 -24 1z"/>
<path d="M6940 3226 c0 -9 5 -16 10 -16 6 0 10 4 10 9 0 6 -4 13 -10 16 -5 3
-10 -1 -10 -9z"/>
<path d="M8030 3229 c0 -5 5 -7 10 -4 6 3 10 8 10 11 0 2 -4 4 -10 4 -5 0 -10
-5 -10 -11z"/>
<path d="M8170 3230 c0 -5 7 -10 16 -10 8 0 12 5 9 10 -3 6 -10 10 -16 10 -5
0 -9 -4 -9 -10z"/>
<path d="M8316 3213 c9 -36 14 -42 14 -15 0 12 5 22 10 22 6 0 10 -9 10 -20 0
-14 7 -20 24 -20 13 0 27 6 29 13 3 6 6 2 6 -10 1 -28 17 -38 24 -15 2 9 8 25
12 35 6 15 4 18 -16 17 -13 -1 -26 -1 -29 0 -3 1 -14 3 -24 5 -11 2 -30 6 -43
10 -21 5 -23 3 -17 -22z"/>
<path d="M8130 3224 c0 -3 7 -12 15 -20 16 -17 18 -14 9 10 -6 15 -24 23 -24
10z"/>
<path d="M4095 3210 c3 -5 23 -10 43 -9 30 0 33 2 17 9 -28 12 -67 12 -60 0z"/>
<path d="M8528 3188 c7 -7 16 -7 28 0 14 8 13 10 -10 10 -18 0 -24 -4 -18 -10z"/>
<path d="M8593 3176 c15 -12 16 -18 7 -35 -6 -12 -7 -21 -3 -21 4 0 1 -5 -7
-10 -8 -5 -22 -7 -31 -4 -12 3 -20 -4 -28 -26 -7 -20 -15 -29 -22 -24 -7 4 -9
3 -6 -3 5 -7 20 -6 48 4 37 12 44 12 59 -2 17 -15 18 -15 16 2 -1 14 6 18 32
17 32 -1 43 10 20 19 -8 3 -5 6 5 6 10 1 16 5 12 11 -3 5 -22 7 -41 4 -20 -2
-40 -2 -44 1 -12 8 -2 32 16 39 18 7 45 -3 38 -15 -3 -5 2 -6 10 -3 8 3 17 12
20 19 6 16 -10 30 -18 16 -7 -11 -46 -2 -46 10 0 5 -12 9 -27 9 -26 -1 -27 -2
-10 -14z m27 -86 c0 -5 -7 -10 -15 -10 -8 0 -15 5 -15 10 0 6 7 10 15 10 8 0
15 -4 15 -10z"/>
<path d="M8146 3169 c5 -9 -11 -13 -31 -9 -5 1 -7 -2 -3 -5 4 -4 2 -17 -4 -28
-27 -51 3 -130 58 -153 20 -8 44 -12 55 -9 11 4 27 1 36 -7 15 -11 16 -11 10
5 -4 10 -7 31 -7 45 l-1 27 -20 -27 c-24 -33 -49 -36 -73 -9 -21 23 -34 91
-17 91 8 0 10 8 6 20 -4 11 -3 19 2 18 4 -1 18 3 30 10 19 11 24 8 47 -21 l26
-32 0 37 c0 28 -4 37 -17 37 -10 0 -37 4 -60 9 -23 5 -40 5 -37 1z"/>
<path d="M8830 3150 c0 -5 10 -10 23 -10 18 0 19 2 7 10 -19 13 -30 13 -30 0z"/>
<path d="M8561 3141 c-15 -10 -7 -31 12 -31 7 0 6 4 -3 10 -13 8 -12 10 3 10
9 0 17 5 17 10 0 12 -10 13 -29 1z"/>
<path d="M8390 3131 c0 -6 5 -13 11 -17 7 -4 9 -29 5 -73 -3 -36 -6 -69 -6
-73 0 -5 -7 -8 -15 -8 -11 0 -15 12 -15 48 0 26 -5 53 -12 60 -17 17 -53 15
-68 -3 -17 -21 -4 -32 20 -17 26 16 30 15 30 -6 0 -10 -12 -22 -30 -29 -47
-18 -36 -72 15 -72 46 0 108 -10 114 -18 3 -5 21 -9 39 -10 18 0 31 2 28 4 -3
3 1 15 9 27 22 30 18 64 -10 92 -13 13 -25 27 -25 29 0 3 0 8 0 13 0 4 -5 -1
-11 -10 -17 -31 -29 -20 -29 27 0 41 -2 45 -25 45 -14 0 -25 -4 -25 -9z m84
-124 c-1 -9 2 -14 7 -11 12 7 11 -27 0 -45 -8 -12 -12 -12 -25 -2 -16 14 -22
62 -9 75 11 11 28 0 27 -17z m-134 -21 c0 -8 -4 -17 -9 -21 -12 -7 -24 12 -16
25 9 15 25 12 25 -4z"/>
<path d="M8452 2971 c4 -13 18 -16 19 -4 0 4 -5 9 -11 12 -7 2 -11 -2 -8 -8z"/>
<path d="M8982 3124 c-11 -12 -10 -14 5 -15 10 -1 26 -1 35 0 11 1 15 -4 14
-16 -3 -17 -10 -19 -85 -14 -7 1 -11 7 -8 14 8 22 -6 38 -23 26 -11 -8 -12
-12 -2 -16 6 -2 12 -9 12 -15 0 -6 8 -17 17 -24 14 -9 21 -10 32 -1 12 10 13
9 8 -7 -6 -16 -5 -17 8 -6 11 9 15 9 15 1 0 -6 -7 -14 -16 -18 -15 -6 -15 -8
2 -21 18 -13 17 -14 -11 -9 -29 5 -29 5 -8 -10 12 -8 20 -20 17 -28 -9 -22
-54 6 -54 34 0 17 -4 22 -16 17 -9 -3 -18 -6 -20 -6 -2 0 -4 -7 -4 -15 0 -8
-4 -15 -10 -15 -5 0 -10 -8 -10 -17 0 -15 -2 -14 -14 2 -8 11 -13 22 -11 26 2
3 -17 5 -41 4 -34 0 -48 -5 -56 -19 -6 -10 -7 -16 -2 -13 5 3 9 -14 9 -38 0
-30 -3 -41 -12 -38 -8 3 -13 23 -13 53 0 58 -17 75 -82 84 -39 6 -48 4 -48 -8
0 -8 4 -16 9 -18 6 -1 7 -22 4 -46 -9 -64 -28 -46 -28 26 0 34 -4 62 -8 62 -5
0 -5 4 -2 10 3 6 -1 7 -9 4 -9 -3 -16 -10 -16 -15 0 -5 -5 -8 -11 -7 -6 2 -14
-3 -16 -9 -3 -7 0 -13 6 -13 6 0 11 -18 11 -40 0 -22 -4 -40 -10 -40 -5 0 -10
-4 -10 -9 0 -10 86 -31 127 -31 21 0 24 3 15 12 -17 17 -15 73 3 88 20 17 29
-8 23 -65 -5 -44 -5 -45 28 -51 18 -3 37 -3 42 0 5 3 15 -1 22 -9 18 -22 76
-17 77 7 2 15 -3 17 -18 13 -22 -7 -49 10 -49 31 0 10 12 13 41 12 26 -1 44 4
50 13 6 9 9 0 9 -31 0 -59 11 -73 54 -76 32 -3 35 -1 22 11 -8 8 -19 15 -25
15 -6 0 -11 20 -11 45 0 33 4 45 15 45 8 0 15 -5 15 -11 0 -6 7 -9 15 -5 10 3
15 -1 15 -14 0 -10 5 -22 12 -26 6 -4 8 -3 4 4 -3 6 -2 13 4 17 7 4 7 12 0 26
-9 15 -7 19 5 19 8 0 15 -6 15 -13 0 -18 38 -48 45 -37 10 16 23 11 30 -11 6
-18 8 -19 18 -4 12 16 41 16 65 2 7 -5 12 -4 12 2 0 6 4 11 8 11 5 0 9 -7 9
-16 0 -11 -7 -14 -21 -10 -12 3 -32 8 -46 12 -22 5 -23 4 -7 -6 11 -7 33 -14
50 -17 18 -3 40 -9 49 -14 17 -9 78 -9 78 0 0 2 -7 9 -16 16 -16 11 -16 12 0
18 12 5 20 0 26 -16 5 -12 9 -16 9 -9 1 7 5 11 10 7 5 -3 18 6 29 20 11 14 23
21 26 16 4 -6 -2 -15 -13 -21 -13 -7 -18 -16 -14 -27 6 -15 7 -14 14 3 4 10 8
13 8 6 1 -6 4 -11 9 -11 22 4 41 -3 44 -15 3 -12 5 -12 16 0 11 12 9 16 -13
24 -14 5 -25 11 -25 13 0 2 35 1 62 -2 3 -1 4 -10 1 -21 -3 -11 0 -20 6 -20 6
0 11 9 11 21 0 24 26 54 35 40 3 -5 1 -12 -4 -15 -6 -4 -4 -17 4 -34 11 -21
14 -153 16 -647 l3 -620 -21 3 c-11 2 -142 35 -289 73 -148 39 -469 122 -714
184 -245 63 -532 136 -637 163 -106 27 -193 47 -193 43 0 -9 68 -51 84 -51 7
0 30 -7 51 -15 20 -9 45 -13 56 -10 11 4 19 2 19 -4 0 -6 4 -11 10 -11 5 0 7
8 4 18 -5 16 -5 16 6 0 6 -10 18 -18 25 -18 8 0 15 -4 15 -9 0 -16 39 -19 52
-4 10 13 13 13 24 -2 7 -9 21 -17 33 -18 12 -1 21 -4 21 -7 0 -3 12 -6 28 -5
15 0 33 -5 40 -12 8 -7 18 -11 23 -7 6 3 21 -2 34 -10 23 -15 25 -15 25 1 1
17 1 17 11 -1 9 -14 13 -15 19 -6 5 8 13 9 21 4 8 -4 26 -7 41 -5 16 1 28 -2
28 -8 0 -6 9 -11 20 -11 11 0 23 -6 26 -14 3 -8 13 -12 25 -9 11 3 19 0 19 -7
0 -8 9 -11 25 -8 13 3 26 2 27 -2 5 -14 86 -20 91 -7 2 7 10 3 22 -10 10 -12
22 -20 27 -17 4 3 8 -3 8 -13 0 -15 2 -15 9 -4 8 12 12 12 25 2 8 -7 23 -11
33 -9 10 2 23 -2 28 -8 6 -7 25 -15 43 -18 85 -15 98 -19 104 -29 4 -7 8 -9 8
-4 0 4 14 0 31 -9 24 -12 33 -13 39 -4 5 8 10 9 14 2 4 -6 13 -9 20 -6 8 3 17
1 20 -4 3 -5 19 -8 36 -6 16 2 30 0 30 -4 0 -4 11 -9 25 -10 14 -1 40 -8 58
-15 18 -8 42 -12 55 -11 12 2 21 1 21 -4 -3 -19 2 -25 11 -12 8 13 10 12 10
-2 0 -10 5 -19 10 -19 6 -1 19 -3 30 -4 11 -1 21 -3 23 -5 6 -4 45 -11 84 -13
24 -1 45 -8 48 -14 2 -7 13 -13 24 -13 11 0 22 6 24 13 4 7 6 6 6 -4 1 -10 14
-19 34 -24 17 -4 39 -9 47 -11 8 -2 27 -5 43 -6 15 -1 27 -6 27 -10 0 -4 11
-8 25 -8 14 0 25 -5 25 -11 0 -8 4 -8 14 0 10 8 16 9 21 1 16 -25 24 -5 22 55
-1 36 1 66 5 67 5 2 4 17 -1 34 -5 18 -5 37 0 45 5 8 6 22 3 32 -3 9 0 17 6
17 7 0 3 12 -8 28 -11 15 -20 43 -20 62 -1 33 0 34 15 15 15 -19 15 -19 8 5
-5 14 -7 42 -7 63 1 20 -3 37 -8 37 -6 0 -10 16 -10 36 0 21 4 33 10 29 11 -7
14 18 3 29 -8 8 -11 186 -3 186 3 0 6 129 7 288 0 158 3 317 6 354 6 76 2 82
-78 120 -28 13 -66 34 -85 46 -19 12 -42 21 -51 18 -9 -2 -54 3 -100 10 -46 8
-104 16 -129 19 -25 3 -107 15 -183 26 -75 11 -142 17 -147 14 -5 -3 -18 -2
-27 3 -13 7 -22 6 -31 -4z m118 -34 c0 -5 -2 -10 -4 -10 -3 0 -8 5 -11 10 -3
6 -1 10 4 10 6 0 11 -4 11 -10z m50 -59 c0 -5 -9 -13 -21 -16 -16 -5 -18 -9
-8 -21 10 -12 9 -17 -1 -27 -10 -10 -12 -8 -6 7 5 14 2 17 -9 12 -21 -8 -19 6
5 32 22 23 40 29 40 13z m-60 -15 c0 -3 -4 -8 -10 -11 -5 -3 -10 -1 -10 4 0 6
5 11 10 11 6 0 10 -2 10 -4z m-30 -52 c0 -20 -7 -17 -20 6 -9 16 -8 18 5 14 8
-4 15 -12 15 -20z m-220 -5 c0 -5 -9 -9 -20 -9 -11 0 -20 4 -20 8 0 4 9 8 20
9 11 1 20 -2 20 -8z m320 -14 c7 -8 9 -15 6 -15 -4 0 -14 7 -22 15 -9 8 -11
15 -6 15 5 0 15 -7 22 -15z m64 -1 c3 -8 2 -12 -4 -9 -6 3 -10 10 -10 16 0 14
7 11 14 -7z m-119 -5 c-7 -11 -35 -12 -35 -1 0 4 9 8 20 9 11 1 18 -2 15 -8z
m155 7 c0 -3 -4 -8 -10 -11 -5 -3 -10 -1 -10 4 0 6 5 11 10 11 6 0 10 -2 10
-4z m50 -6 c0 -5 -5 -10 -11 -10 -5 0 -7 5 -4 10 3 6 8 10 11 10 2 0 4 -4 4
-10z m170 -34 c0 -3 -4 -8 -10 -11 -5 -3 -10 -1 -10 4 0 6 5 11 10 11 6 0 10
-2 10 -4z"/>
<path d="M6910 3115 c0 -8 2 -15 4 -15 2 0 6 7 10 15 3 8 1 15 -4 15 -6 0 -10
-7 -10 -15z"/>
<path d="M8490 3100 c0 -5 5 -10 10 -10 6 0 10 5 10 10 0 6 -4 10 -10 10 -5 0
-10 -4 -10 -10z"/>
<path d="M8794 3099 c-4 -7 31 -19 59 -19 9 0 17 6 17 13 0 13 -68 18 -76 6z"/>
<path d="M8635 3060 c3 -5 8 -10 11 -10 2 0 4 5 4 10 0 6 -5 10 -11 10 -5 0
-7 -4 -4 -10z"/>
<path d="M7805 2970 c-11 -5 -14 -9 -7 -9 6 -1 12 -13 12 -27 0 -19 -4 -25
-15 -21 -25 10 -58 -26 -57 -62 1 -45 25 -69 71 -69 l38 -1 -1 96 c-1 55 -5
97 -11 99 -5 1 -19 -1 -30 -6z m5 -126 c0 -47 0 -47 -24 -38 -16 6 -23 73 -10
87 17 16 34 -8 34 -49z"/>
<path d="M7885 2962 c-13 -9 -13 -73 -1 -69 5 2 15 12 23 23 10 16 10 24 0 37
-6 9 -17 13 -22 9z"/>
<path d="M7955 2915 c-76 -75 46 -231 125 -160 49 44 28 144 -34 170 -48 20
-63 19 -91 -10z m89 -8 c42 -31 34 -149 -10 -155 -50 -7 -84 95 -48 146 17 25
33 28 58 9z"/>
<path d="M9090 2890 c0 -5 5 -10 11 -10 5 0 7 5 4 10 -3 6 -8 10 -11 10 -2 0
-4 -4 -4 -10z"/>
<path d="M8325 2884 c-6 -2 -9 -45 -9 -101 2 -97 2 -98 27 -101 24 -3 24 -1
20 41 -4 29 -1 47 7 52 19 12 28 -13 20 -56 -5 -27 -4 -42 4 -44 36 -11 56
-12 56 -4 0 5 -5 9 -10 9 -6 0 -9 20 -8 45 1 50 -14 75 -48 75 -20 0 -23 6
-26 42 -3 40 -12 51 -33 42z"/>
<path d="M9005 2866 c-17 -13 -17 -13 11 -13 16 0 23 2 16 4 -6 3 -10 9 -6 14
7 13 1 11 -21 -5z"/>
<path d="M9046 2865 c4 -8 11 -15 16 -15 6 0 5 6 -2 15 -7 8 -14 15 -16 15 -2
0 -1 -7 2 -15z"/>
<path d="M9120 2861 c0 -6 4 -13 10 -16 6 -3 7 1 4 9 -7 18 -14 21 -14 7z"/>
<path d="M8238 2837 c-12 -15 -20 -18 -25 -11 -10 14 -80 17 -88 4 -3 -6 -1
-10 4 -10 15 0 14 -77 -1 -86 -8 -5 -2 -11 17 -16 17 -4 34 -3 39 2 7 7 6 10
-3 10 -8 0 -11 12 -9 37 3 33 6 37 31 38 27 0 29 -3 33 -49 4 -50 15 -66 47
-66 21 0 23 16 2 24 -10 3 -15 19 -15 46 0 29 4 40 15 40 8 0 15 4 15 9 0 5
-7 11 -15 15 -8 3 -15 12 -15 21 0 21 -12 18 -32 -8z"/>
<path d="M9236 2834 c-9 -24 -7 -27 9 -10 17 17 19 26 6 26 -5 0 -12 -7 -15
-16z"/>
<path d="M8748 2723 c3 -58 0 -99 -7 -107 -9 -11 1 -16 51 -26 35 -6 71 -14
81 -17 9 -2 17 0 17 6 0 6 -5 11 -11 11 -7 0 -10 20 -7 54 1 30 0 52 -3 50 -4
-2 -10 3 -13 12 -4 11 -15 15 -36 12 -28 -4 -29 -3 -32 40 -2 34 -8 47 -23 52
-19 7 -20 4 -17 -87z m82 -79 c0 -38 -3 -45 -17 -42 -22 4 -30 62 -13 84 19
22 30 7 30 -42z"/>
<path d="M8466 2758 c-22 -31 -20 -53 7 -82 32 -35 62 -41 86 -17 28 28 26 67
-4 96 -30 31 -69 32 -89 3z m64 -7 c5 -11 10 -36 10 -55 0 -29 -4 -36 -19 -36
-21 0 -31 19 -31 55 0 52 21 71 40 36z"/>
<path d="M8590 2752 c0 -5 3 -12 7 -15 11 -12 14 -148 3 -162 -8 -9 -6 -14 6
-19 24 -9 54 -7 54 4 0 6 -4 10 -10 10 -5 0 -10 11 -10 25 0 29 0 28 37 14 15
-5 24 -7 21 -3 -4 4 1 18 12 32 33 42 0 118 -47 109 -13 -2 -26 0 -29 4 -7 11
-44 12 -44 1z m89 -36 c7 -8 11 -30 9 -48 -2 -25 -8 -33 -23 -33 -15 0 -21 8
-23 33 -6 57 12 79 37 48z"/>
<path d="M9207 2713 c-11 -11 -8 -31 6 -36 21 -8 39 7 31 26 -6 17 -25 22 -37
10z"/>
<path d="M8892 2676 c-6 -53 -2 -69 19 -92 33 -36 57 -39 85 -13 51 48 10 130
-63 127 -31 -1 -39 -5 -41 -22z m82 -12 c3 -9 6 -31 6 -50 0 -37 -25 -58 -41
-33 -10 16 -12 83 -2 92 11 12 31 7 37 -9z"/>
<path d="M9049 2673 c-1 -5 -1 -32 1 -60 1 -33 -2 -53 -9 -53 -27 0 -7 -18 26
-23 40 -7 57 0 33 13 -23 12 -14 92 9 88 12 -3 16 -15 16 -56 0 -58 -4 -55 94
-72 62 -11 93 -8 52 5 -18 6 -21 14 -21 71 0 60 -1 64 -23 64 -22 0 -23 -3
-19 -61 4 -55 3 -61 -14 -57 -15 2 -20 14 -22 53 -4 61 -25 88 -65 82 -15 -2
-30 0 -33 5 -6 10 -24 11 -25 1z"/>
<path d="M8050 2640 c0 -5 5 -10 10 -10 6 0 10 -33 10 -80 0 -54 -4 -80 -12
-80 -21 0 0 -12 36 -20 35 -8 51 2 21 14 -10 3 -15 19 -15 41 0 36 1 36 33 30
45 -10 50 -18 39 -58 -11 -40 -8 -47 22 -47 20 0 21 4 18 85 -2 56 0 85 7 85
6 0 11 5 11 10 0 6 -17 10 -37 10 -29 0 -34 -3 -25 -12 7 -7 12 -23 12 -36 0
-21 -4 -23 -37 -20 -35 3 -38 6 -41 36 -2 24 1 32 12 32 28 0 17 17 -15 24
-42 8 -49 8 -49 -4z"/>
<path d="M9294 2606 c-8 -14 -17 -38 -20 -53 -3 -23 2 -32 31 -50 43 -28 56
-29 86 -3 l24 20 -32 -6 c-35 -7 -63 8 -63 34 0 11 8 13 33 10 50 -8 59 -1 42
32 -13 25 -39 39 -72 40 -7 0 -20 -11 -29 -24z m56 -11 c10 -13 9 -15 -9 -15
-12 0 -21 6 -21 15 0 8 4 15 9 15 5 0 14 -7 21 -15z"/>
<path d="M8388 2568 c17 -17 16 -165 0 -171 -26 -9 1 -18 69 -24 65 -5 71 -4
87 18 44 63 -2 156 -88 178 -61 15 -84 15 -68 -1z m110 -44 c48 -54 18 -155
-43 -140 -24 6 -25 9 -25 92 0 84 0 85 23 79 12 -4 32 -18 45 -31z"/>
<path d="M8593 2515 c-7 -20 2 -29 21 -22 9 4 13 13 10 22 -8 19 -23 19 -31 0z"/>
<path d="M8781 2479 c12 -23 15 -124 4 -158 -5 -16 -1 -22 20 -27 30 -8 44 1
27 18 -7 7 -12 46 -12 100 0 88 0 88 -25 88 -23 0 -25 -2 -14 -21z"/>
<path d="M8585 2378 c0 -74 -2 -83 -17 -80 -23 4 -23 -14 -1 -23 12 -4 25 2
41 20 19 22 22 37 21 96 -1 63 -3 69 -23 69 -20 0 -21 -5 -21 -82z"/>
<path d="M8250 2431 c0 -12 6 -21 16 -21 9 0 14 7 12 17 -5 25 -28 28 -28 4z"/>
<path d="M8662 2438 c-7 -7 -12 -16 -12 -20 0 -13 28 -9 33 5 3 9 8 9 18 -2
12 -11 11 -15 -5 -25 -10 -6 -28 -19 -40 -28 -20 -16 -20 -18 -4 -34 10 -10
33 -19 53 -20 20 -2 40 -6 46 -10 7 -4 8 7 3 33 -4 21 -8 47 -8 59 -2 45 -55
71 -84 42z m56 -75 c-4 -22 -38 -30 -38 -10 0 14 13 24 33 26 5 1 7 -7 5 -16z"/>
<path d="M8966 2443 c-12 -12 -6 -33 9 -33 8 0 15 6 15 14 0 17 -14 28 -24 19z"/>
<path d="M8870 2420 c-17 -15 -21 -24 -12 -27 7 -3 12 -24 12 -58 0 -46 3 -55
21 -60 26 -9 50 11 26 21 -12 4 -17 18 -17 46 0 37 2 39 28 36 24 -3 27 -7 30
-46 2 -24 -2 -50 -9 -58 -9 -11 -8 -14 2 -14 8 0 25 -3 39 -7 22 -6 23 -5 12
10 -9 10 -12 36 -11 68 2 29 -1 54 -6 55 -6 1 -27 5 -47 9 -27 4 -38 11 -40
26 -3 21 -3 21 -28 -1z"/>
<path d="M7888 2373 c7 -3 16 -2 19 1 4 3 -2 6 -13 5 -11 0 -14 -3 -6 -6z"/>
<path d="M7921 2366 c7 -8 240 -58 245 -54 2 3 -49 17 -114 31 -116 27 -139
31 -131 23z"/>
<path d="M8225 2294 c28 -7 57 -13 65 -13 8 0 -7 7 -35 15 -27 7 -57 13 -65
13 -8 0 8 -7 35 -15z"/>
<path d="M8315 2274 c24 -10 949 -223 952 -220 7 7 -80 28 -791 192 -134 30
-190 40 -161 28z"/>
<path d="M0 2005 c0 -93 -4 -86 92 -144 l38 -23 0 109 c0 108 0 109 -27 124
-16 9 -45 17 -65 17 l-38 1 0 -84z"/>
<path d="M7687 2059 c7 -7 15 -10 18 -7 3 3 -2 9 -12 12 -14 6 -15 5 -6 -5z"/>
<path d="M760 1430 c8 -6 24 -16 35 -22 20 -11 20 -11 1 11 -11 11 -26 21 -35
21 -14 0 -14 -2 -1 -10z"/>
<path d="M840 1420 c0 -5 5 -10 11 -10 5 0 7 5 4 10 -3 6 -8 10 -11 10 -2 0
-4 -4 -4 -10z"/>
<path d="M934 1393 c4 -8 1 -13 -8 -13 -9 0 -16 -4 -16 -10 0 -13 27 -13 36 1
3 6 1 16 -6 22 -10 9 -11 9 -6 0z"/>
<path d="M1026 1391 c-3 -5 1 -11 9 -15 8 -3 15 -1 15 4 0 13 -18 22 -24 11z"/>
<path d="M4250 1386 c0 -8 -3 -21 -6 -30 -3 -9 -2 -16 3 -16 5 0 10 14 11 30
1 17 0 30 -3 30 -3 0 -5 -6 -5 -14z"/>
<path d="M955 1350 c3 -5 8 -10 11 -10 2 0 4 5 4 10 0 6 -5 10 -11 10 -5 0 -7
-4 -4 -10z"/>
<path d="M1210 1320 c0 -5 9 -10 19 -10 11 0 23 5 26 10 4 6 -5 10 -19 10 -14
0 -26 -4 -26 -10z"/>
<path d="M1553 1318 c-12 -20 -12 -39 -1 -36 6 2 13 14 15 26 3 25 -2 28 -14
10z"/>
<path d="M1125 1311 c3 -5 0 -11 -7 -13 -7 -3 -2 -7 10 -10 25 -7 31 16 6 26
-8 3 -13 2 -9 -3z"/>
<path d="M1300 1298 c0 -4 7 -8 15 -8 8 0 15 4 15 8 0 5 -7 9 -15 9 -8 0 -15
-4 -15 -9z"/>
<path d="M1471 1258 c-11 -17 -15 -18 -22 -7 -7 11 -9 11 -9 -3 0 -10 7 -18
15 -18 8 0 15 -6 15 -12 0 -10 3 -9 9 1 5 7 13 11 19 7 5 -3 23 1 38 9 27 14
50 11 28 -3 -6 -4 -13 -14 -16 -22 -4 -12 2 -15 33 -14 51 1 64 14 15 14 -33
0 -36 2 -22 15 8 8 21 15 28 15 10 0 9 3 -2 10 -18 12 -70 13 -70 2 0 -5 -6
-9 -14 -9 -8 0 -12 6 -9 12 8 22 -23 24 -36 3z"/>
<path d="M1626 1263 c-12 -12 -6 -18 19 -19 14 -1 25 0 25 2 0 8 -38 23 -44
17z"/>
<path d="M1410 1240 c0 -5 5 -10 10 -10 6 0 10 5 10 10 0 6 -4 10 -10 10 -5 0
-10 -4 -10 -10z"/>
<path d="M1668 1223 c-21 -12 -20 -13 16 -10 22 1 41 7 43 13 5 14 -33 12 -59
-3z"/>
<path d="M1740 1230 c0 -5 4 -10 9 -10 6 0 13 5 16 10 3 6 -1 10 -9 10 -9 0
-16 -4 -16 -10z"/>
<path d="M1658 1119 c-7 -4 -7 -9 1 -13 6 -4 11 -3 11 2 0 6 8 8 19 5 10 -3
22 0 25 6 8 12 -37 12 -56 0z"/>
<path d="M4414 1050 c32 -17 60 -29 62 -27 7 7 -64 46 -94 52 -16 4 -4 -7 32
-25z"/>
<path d="M7010 822 c0 -12 19 -26 26 -19 2 2 -2 10 -11 17 -9 8 -15 8 -15 2z"/>
<path d="M4295 585 c-25 -12 -26 -14 -5 -9 28 7 60 23 45 23 -5 0 -23 -6 -40
-14z"/>
<path d="M4220 560 c-18 -12 -2 -12 25 0 13 6 15 9 5 9 -8 0 -22 -4 -30 -9z"/>
</g>
</svg>
